<?xml version="1.0" encoding="utf-8"?>
<!-- Generator: Adobe Illustrator 27.1.1, SVG Export Plug-In . SVG Version: 6.00 Build 0)  -->
<svg version="1.1" id="_图层_1" xmlns="http://www.w3.org/2000/svg" xmlns:xlink="http://www.w3.org/1999/xlink" x="0px" y="0px"
	 viewBox="0 0 320 89" style="enable-background:new 0 0 320 89;" xml:space="preserve">
<style type="text/css">
	.st0{fill:#FFFFFF;}
</style>
<g id="SvgjsG1012">
	<path class="st0" d="M0.4,13.9c-0.2,1.8,0.6,3.5,2,4.6c1,0.8,2.1,1.6,3.3,2.1c1.8,1,3.6,2,5.4,2.8c4,1.7,8.1,3.2,12.3,4.6
		c1,0.3,2,0.6,3,1c-2-0.2-4.1-0.4-6.2-0.4l-0.1-0.1c-3-1.6-6.6-2.2-9.9-1.5l-0.2,0c0.3,0,0.1,0-0.4,0.1l-0.6,0.1
		c-0.5,0.1-0.9,0.3-1.3,0.5c-0.8,0.4-1.6,1-2.2,1.6c-0.9,1-1.3,2.2-1.3,3.6c-1.1,0.9-2.1,2-2.8,3.2c-1.7,3-1.8,6.7-0.4,9.9
		c0.4,0.9,0.9,1.8,1.4,2.6C3,49.4,3.6,50.2,4.2,51c1.3,1.6,2.8,3,4.5,4.3c3.2,2.5,6.7,4.7,10.4,6.5c2,1,4,1.9,6,2.8l-0.4,0.2
		c-2.5,1.5-4,4.4-3.7,7.3c0.5,2.4,2.2,4.5,4.5,5.4c2.4,1.1,5,1.8,7.6,2c2.2,0.3,4.5,0.3,6.7,0c3-0.5,6-1.3,8.8-2.6
		c2.5-1,4.8-2.6,6.7-4.5c1.6,0.1,3.2,0.1,4.9-0.1c3.4-0.2,6.6-1.5,9.2-3.7c2.7-1.8,3.3-5.5,1.5-8.2c-0.3-0.4-0.6-0.8-1-1.1
		c-0.3-0.3-0.7-0.7-1-1c0.4-1.6,0.6-3.2,0.5-4.8c-0.2-3.5-1.2-6.9-2.9-10c-0.9-1.7-1.9-3.4-3-5c5.7,2.3,11.3,5,17,7.5
		c3.6,1.7,7.4,3,11.2,4c1.2,0.3,2.4,0.7,3.7,1c1.4,0.4,3.8,0.4,4.5-1.7c0.4-0.8,0.2-1.9-0.5-2.5c-3.4-2.7-7.3-4.8-11.4-6.2
		c-4.1-1.5-8.3-2.7-12.6-3.9c-4.8-1.3-9.6-2.5-14.4-3.8c-0.8-0.3-1.7-0.5-2.5-0.8c-1.9-2.2-4-4.2-6.2-6.1
		c-6.5-5.4-13.9-9.7-21.8-12.8c-6.3-2.5-13-4-19.8-4.3c-2.6-0.3-5.3,0.1-7.7,1.2C1.7,11,0.7,12.3,0.4,13.9L0.4,13.9z M11.1,36.1
		L11.1,36.1c-0.7-0.7-1.2-1.4-1.7-2.2c0.6-0.2,1.1-0.4,1.7-0.6c1.7-0.5,3.5-0.9,5.3-1c0.8-0.1,1.5-0.1,2.2-0.1
		c0.4,0.2,0.7,0.4,1.1,0.7c0.5,0.3,1,0.7,1.4,1.1l0.5,0.4l0.6,0.8c0.9,1.1,1.5,2.3,1.9,3.7c0.7,2,1.1,4,1.3,6.1
		c-2.2-0.9-4.4-2-6.5-3.2c-1.8-1-3.5-2.2-5.1-3.4c-0.7-0.5-1.4-1.1-2-1.7l-0.5-0.5L11.1,36.1L11.1,36.1z M28.9,46.4
		c0-1.7,0.1-3.4,0-5c-0.1-1.9-0.6-3.8-1.4-5.5c-0.5-1.1-1.2-2.2-2-3.2c0.6,0.1,1.2,0.2,1.8,0.2c1.6,0.2,3.1,0.5,4.7,0.8
		c0,1.4,0.5,2.8,1.3,3.9c0.8,1.2,1.6,2.4,2.5,3.5c1.2,1.4,2.5,2.7,4,3.8c-2-0.6-4-1-6-1.1c-0.8,0-1.5,0.4-2,1
		c-0.5,0.6-0.6,1.4-0.5,2.2v0L30,46.8L28.9,46.4L28.9,46.4z M57.6,45.3l0.4,0.4l0.4,0.5c0.4,0.4,0.7,0.9,1,1.4l0.3,0.5
		c-0.1-0.2,0.2,0.3,0.2,0.5l0.1,0.5v0.1v0l0,0.1v0l0,0.1l-0.1,0.2h0l-0.3,0.3l-0.3,0.2l-0.6,0.3l-0.6,0.2c0.4-0.2-0.3,0.1-0.3,0.1
		c-0.4,0.1-0.7,0.2-1.1,0.2c-2.7-2-5.4-3.9-8.3-5.6c-3.4-2-6.5-4.4-9.2-7.2c-0.9-1-1.7-2.1-2.4-3.3c4.6,1.2,9,3,13.3,5.1
		C52.8,41.4,55.4,43.2,57.6,45.3L57.6,45.3L57.6,45.3z M53.2,55.7l1.5-0.1l0.4,0.4c1.4,1.2,2.6,2.7,3.7,4.2c0.2,0.4,0.5,0.8,0.7,1.2
		l0.3,0.5v0c-1.6-0.2-3.2-0.5-4.7-1.2c-1.9-0.6-3.7-1.4-5.4-2.3c-1.7-1-3.2-2-4.7-3.2C47.6,55.6,50.4,55.8,53.2,55.7L53.2,55.7
		L53.2,55.7z M57,39l-0.2-0.1c-1.9-1.2-3.8-2.4-5.9-3.3c1.3,0.3,2.7,0.7,4.1,1C55.7,37.3,56.3,38.1,57,39L57,39L57,39z M20.4,56.7
		c-1.4-0.7-3.3-1.8-4.9-2.8c-1.7-1.1-3.3-2.3-4.8-3.6c-0.7-0.6-1.4-1.3-2.1-2L8.4,48L8,47.6c-0.4-0.4-0.7-0.8-1-1.3
		c-0.6-0.7-1.1-1.5-1.6-2.3l-0.2-0.4l-0.2-0.4c-0.2-0.4-0.3-0.8-0.5-1.2c-0.5-1.2-0.5-2.5-0.2-3.7l0-0.2l0.2-0.5l0.2-0.3
		c-0.1,0.1,0.1-0.2,0.2-0.3l0.3-0.5l0.3,0.6c0.6,1,1.3,1.8,2.1,2.6c2.6,2.6,5.7,4.8,9,6.5c6,3.1,12.3,5.5,18.9,7
		c0.5,0.5,1,0.9,1.5,1.3c2.8,2.7,5.9,5.1,9.2,7.3c2,1.2,4.2,2.3,6.4,3.1l-0.6,0l-1.4,0c-1,0-2.1,0-3.1-0.1c-2-0.1-3.9-0.3-5.9-0.7
		l-0.2,0l-0.2,0l-0.7-0.1l-1.4-0.3c-1-0.2-2-0.5-3-0.8c-1.9-0.5-3.7-1.1-5.5-1.8C27.3,60,23.8,58.4,20.4,56.7L20.4,56.7L20.4,56.7z
		 M45.8,75c-1.5,0.6-3.1,1-4.8,1.3c-0.6,0.1-1.1,0.2-1.7,0.3h-0.1l-0.2,0l-0.8,0c-2.4,0.1-4.8-0.2-7.1-0.6c-1.2-0.3-2.5-0.7-3.6-1.2
		c-0.5-0.2-0.9-0.4-1.3-0.7c-0.4-0.3-0.8-0.6-1.2-1L24.8,73l-0.2-0.3l-0.4-0.6c0.1,0.2-0.1-0.4-0.2-0.5L24,71.4c0,0.2,0-0.2,0-0.3
		c0-0.1,0-0.3,0-0.4v-0.1c0-0.3,0.1-0.6,0.2-0.8l0-0.1l0-0.1l0.2-0.4l0.2-0.3c-0.1,0.2,0.2-0.2,0.2-0.3l0.2-0.2
		c-0.1,0.1,0.1-0.1,0.2-0.2l0.3-0.3l0.1-0.1l0,0c0.2-0.2,0.5-0.3,0.8-0.4l0.3-0.1l0.5-0.1c0.3-0.1,0.6-0.1,0.9-0.2l0.5-0.1l0.3,0
		c0.6-0.1,1.3-0.1,2,0c3.4,1.2,6.9,2,10.4,2.7c0.9,0.2,1.9,0.3,2.8,0.4c1.9,0.7,3.8,1.3,5.7,1.8c0.7,0.2,1.3,0.3,2,0.4
		C49.8,73.3,47.9,74.3,45.8,75L45.8,75L45.8,75z M67.7,62.7c0.2,0.3,0.4,0.6,0.6,0.9l0.1,0.2l0.1,0.4l0,0.1l0,0.4l0,0.1L68.4,65
		l-0.1,0.3l0,0.1l-0.1,0.1l-0.3,0.4l0,0L67.7,66c-0.3,0.3-0.7,0.6-1.1,0.9l-0.4,0.2l-0.6,0.3c-0.4,0.2-0.8,0.4-1.2,0.5
		c-0.8,0.3-1.6,0.5-2.4,0.7C60.8,68.9,59.4,69,58,69c2.5-0.7,4.8-1.9,6.8-3.7c1-0.9,1.9-2,2.6-3.1L67.7,62.7L67.7,62.7z M64.4,53.6
		c0,0.4,0.1,0.8,0.1,1.2v0.5c-1-0.6-2-1.2-3.1-1.7c0.8-0.5,1.5-1.2,2-2l0.4-0.7c0.2,0.6,0.3,1.2,0.5,1.8l0.1,0.3
		C64.3,53.1,64.4,53.6,64.4,53.6z M6.8,13.6l0.7-0.1l0.9,0c0.6,0,1.3,0,1.9,0.1c0.9,0.1,1.9,0.1,2.8,0.2c7.8,1,15.3,3.5,22.1,7.2
		c1.4,0.8,3.5,1.9,5.1,3c1.8,1.1,3.5,2.4,5.2,3.6c0.8,0.6,1.5,1.2,2.2,1.8c-1-0.3-2.1-0.5-3.2-0.6c-6.9-1.9-13.7-3.9-20.4-6.1
		c-4.2-1.3-8.3-2.9-12.3-4.6c-1.5-0.7-3-1.4-4.4-2.2l-0.2-0.1l-0.3-0.1L6,15c-0.3-0.2-0.5-0.4-0.8-0.6l-0.2-0.2L4.9,14l0,0L5,14
		l0.2-0.1C5.7,13.8,6.2,13.7,6.8,13.6z"/>
</g>
<g id="SvgjsG1013">
	<path class="st0" d="M126.2,75.5c-0.6,0-1-0.1-1-0.2s-0.2-0.2-0.5-0.2s-0.7-0.2-1-0.3s-0.7-0.3-0.9-0.3c-0.2,0-0.6-0.2-1-0.5
		s-0.6-0.5-0.7-0.5s-0.4-0.4-0.6-0.8c-0.5-0.8-0.5-1-0.5-2.2c0-0.6,0.2-1.5,0.2-1.9l0.1-0.8v-0.1l0.2-0.3l0.2-0.2l-0.1-0.1
		c-0.1,0-0.1-0.2-0.1-0.6c0-0.5,0-1.2,0.2-2.2c0.2-1.5,0.3-3.2,0.3-3.7c0.1-0.5,0.1-1,0.2-1.1s0.2-1.1,0.2-2.7
		c0-0.2,0.1-0.4,0.2-0.6s0.2-0.6,0.2-0.9v-0.2c0-0.6,0.2-1.4,0.4-2.9c0.1-0.3,0.1-0.7,0.1-0.9l-0.1-0.2l0.2-0.3l-0.1-0.1v-0.2
		l0.2-1.1c0.2-0.7,0.2-1.4,0.2-1.6c0-0.2,0.1-0.5,0.2-0.7c0.2-0.2,0.3-0.5,0.4-0.7l0.1-0.2l-0.1-0.1l-0.4,0.3l-0.1-0.1l0.1-0.2
		c0.1-0.2,0.2-0.9,0.2-1.5c0.1-0.8,0.2-1.3,0.5-1.5c0.2-0.2,0.2-0.4,0.2-0.6v-0.2c-0.2-0.4-0.2-0.6-0.2-0.7v-0.1h0.1
		c0.2,0,0.2-0.1,0.2-0.2s0-0.2-0.2-0.2c-0.1-0.1-0.2-0.2-0.2-0.5v-1.1c0-0.2,0-0.2,0.1-0.3c0.1,0,0.2-0.6,0.2-1.1
		c0.1-0.8,0.2-1.4,0.4-1.4l0.2,0.2l-0.1-0.3c0-0.2,0-0.5,0.1-0.5c0.2,0,0.8-0.2,0.8-0.4l-0.1-0.1l-0.6,0.2v-0.3c0-0.1,0-0.2-0.1-0.2
		s-0.1-0.1-0.1-0.2l0.2-0.2l0.1,0.1l0.2,0.1c0.1,0,0.2,0,0.3-0.1l0.2-0.2h-0.2c-0.2,0-0.3,0-0.3-0.1l0.1-0.2
		c0.1-0.2,0.2-0.4,0.3-0.4l0.2-0.1c0-0.1-0.1-0.2-0.2-0.2c-0.2-0.2-0.3-0.3-0.3-0.5l-0.1-0.2c-0.1,0-0.2,0.2-0.2,0.4v0.2
		c0,0.1,0,0.2-0.1,0.2s-0.2-0.2-0.2-0.5s0.1-0.6,0.2-0.6c0.1-0.1,0.2-0.2,0.2-0.5v-0.1c0-0.2,0.1-0.4,0.2-0.5
		c0.1-0.2,0.2-0.3,0.2-0.6l-0.2-1.4l0.1-0.2c0.2,0,0.2,0.2,0.2,0.3s0,0.3,0.1,0.3s0.2-0.2,0.2-0.5c0-0.2,0-0.4-0.1-0.4h-0.1
		l-0.2-0.1v-0.1c0-0.1,0.1-0.1,0.2-0.2l0.2-0.2c0-0.1,0-0.2-0.2-0.2c-0.2-0.2-0.2-0.3-0.2-0.5c0-0.2,0.1-0.4,0.2-0.4h0.2l-0.2-0.2
		c-0.2-0.2-0.2-0.4-0.2-0.6v-0.2c0.1-0.3,0.2-0.6,0.2-0.7l0.1-1c0-0.4,0-1,0.1-1.2c0.1-0.2,0.2-0.7,0.2-1.2v-0.8
		c0,0,0.1-0.2,0.1-0.4l0.1-2.5c0.2-3.1,0.3-5,0.3-6.2l0.1-2.2c0-1.2-0.3-4.2-0.6-4.7c-0.2-0.3-0.2-0.6-0.2-0.8
		c0-0.2,0.1-0.3,0.2-0.4s0.3-0.2,0.6-0.2c0.4,0,1,0.2,1.8,0.6c0.6,0.3,1,0.5,1.3,0.5l1.6-0.3c0.6,0,1,0.2,2,0.6
		c0.7,0.4,1.6,0.7,1.8,0.8c0.6,0.1,4.2,3.5,4.2,3.9c0,0.2,0.2,0.6,0.4,0.8c0.4,0.3,0.6,0.8,0.8,1.3l0.2,0.3c0.2,0.4,0.6,2,0.6,2.2
		l0.2,0.3c0.2,0.4,0.7,3.4,1.2,7.5c0.1,0.7,0.2,1.4,0.2,1.7c0.2,0.9,0.5,3.6,0.5,4.5v0.2l-0.4-0.6v0.4l-0.2-0.3
		c-0.1,0-0.1,0.2-0.1,0.8c0.1,0.6,0.2,0.9,0.2,0.9s0.2,0,0.2,0.2l-0.1,0.2h-0.1c-0.1,0-0.1,0.5-0.1,1.1c0.1,0.7,0.2,1.2,0.2,1.2
		s0.2-0.1,0.2-0.2v-0.3c0-0.2,0-0.3,0.1-0.3s0.2,0.2,0.2,0.4l-0.1,0.2l0.2-0.3c0.1-0.2,0.2-0.2,0.2-0.2l0.1,0.5c0,0.3,0,0.6,0.1,0.7
		l0.1,0.2l-0.2,0.5c-0.1,0-0.1-0.2-0.1-0.3c0-0.2-0.1-0.4-0.2-0.4L143,34l0.2,1.1c0,0.2-0.1,0.2-0.2,0.2h-0.2
		c-0.1,0-0.2,0.1-0.2,0.2s0.1,0.2,0.2,0.2h0.1c0.2,0,0.2,0.1,0.2,0.3l0.1,0.2l0.1-0.3c0.1-0.2,0.2-0.3,0.2-0.3l0.3,2.4l0.2,1.9
		l-0.1,0.2h-0.2l-0.2,0.1c-0.2,0.2-0.2,0.2-0.2,0.3s0.1,0.2,0.2,0.2s0.2,0.6,0.3,1.5l0.1,1.1c0,0.2,0,0.3-0.1,0.3h-0.2
		c-0.1,0-0.1,0.2-0.1,0.7l0.2,1.6l0.2,0.6l-0.1-0.6v-1.3l0.1-0.3l0.1,0.2c0,0.2,0.1,0.4,0.2,0.4h0.1l-0.1-0.4c0-0.2,0-0.5,0.1-0.5
		s0.2,0.4,0.2,1c0,0.5,0.1,1.1,0.2,1.4l0.3,2.2l0.1,1.4l-0.2-0.2l-0.2-0.2l0.2,1.5l-0.1,0.3c-0.1,0-0.2,0.2-0.2,0.4l-0.1,0.3
		c0,0.3,0.2,0.6,0.3,0.6h0.1c0.1,0,0.2,0.1,0.2,0.2c0.2,0.4,0.4,2.2,0.4,2.8l-0.1,0.2c-0.1-0.2-0.2-0.7-0.2-1.4
		c-0.1-0.6-0.2-1.3-0.3-1.4l-0.2-0.1l0.1,0.2c0.1,0.2,0.2,1.1,0.2,2.1c0.1,0.9,0.2,1.7,0.2,1.7s0.2,0.5,0.2,1.1
		c0,0.8,0.1,1.1,0.2,1.2h0.1c0.1,0,0.2-0.1,0.2-0.2l0.1-0.2h0.1l0.1,0.2l-0.2,0.2c-0.2,0.2-0.2,0.3-0.2,0.5s0.2,0.3,0.4,0.3h0.2
		c0.1,0,0.1,0,0.1,0.1v0.1c-0.1,0.1-0.2,0.2-0.3,0.2h-0.5c-0.4,0-0.7,0.1-0.7,0.3l0.1,0.1l0.2-0.2l0.2,0.2l0.2,0.2v-0.2
		c0-0.2,0.1-0.3,0.2-0.3l0.4,0.2c0.2,0.1,0.2,0.2,0.2,0.6v0.5c0,0.6,0,0.9,0.2,0.9c0.1,0,0.1,0,0.1,0.1v0.3h0.1c0.1,0,0.2,0,0.2,0.2
		l0.1,0.1v-0.1c0-0.2,0.1-0.2,0.2-0.2s0.2,0.1,0.2,0.2v0.1c0,0.1,0,0.2-0.1,0.2c-0.2,0-0.2,0.1-0.2,0.2c0,0.2-0.1,0.2-0.2,0.2
		c-0.1,0-0.2,0.2-0.2,0.4l-0.1,0.2c0.1,0,0.1-0.1,0.2-0.2c0.2-0.2,0.3-0.3,0.6-0.3l0.2,0.2l0.1,0.2l-0.2,0.4c0,0.2,0.2,0.5,0.3,0.5
		h0.2c0.1,0,0.1,0,0.1,0.1c0.1,0.2,0.1,0.6,0.2,0.9v0.5l-0.1-0.1c-0.1,0-0.1,0.2-0.1,0.5c0,0.6,0.1,0.7,0.4,0.8
		c0.2,0.1,0.4,0.2,0.4,0.3v0.1l-0.4-0.2v0.2c0,0.6,0.7,1.8,1.3,2.1c0.2,0.1,0.3,0.1,0.5,0.1l0.6-0.1c0.4-0.2,1.1-0.6,1.5-1
		c0.8-0.7,2-2.2,2-2.5v-0.2c0-0.1,0.1-0.2,0.2-0.3c0.2-0.2,0.4-0.5,0.4-0.6v-0.2c0-0.1,0-0.1,0.1-0.1c0.4,0,0.6-0.5,1.4-2.3
		c0.2-0.6,0.5-1.3,0.5-1.4c0-0.2,0.1-0.5,0.2-0.6l0.2-0.4l0.2-0.8c0.5-1.3,0.6-1.8,0.6-2.1c0-0.1,0.1-0.5,0.2-0.9
		c0.2-0.6,0.8-3.1,1.1-5.1l0.3-1.4c0.2-0.5,0.2-1.1,0.2-1.4s0.1-0.6,0.2-0.8c0.1-0.1,0.2-0.5,0.2-0.9c0.1-0.5,0.2-1.4,0.3-2.1
		s0.2-1.5,0.2-1.8l0.2-0.6l0.3-3.3c0.1-1.7,0.3-3.5,0.4-3.9c0.1-0.4,0.1-0.9,0.1-1v-0.2l0.2-2.1c0.2-1.2,0.2-2.4,0.2-2.7
		c0-0.2,0.1-0.6,0.2-0.8l0.2-0.2l-0.2-0.2c-0.1-0.1-0.2-0.2-0.2-0.5l0.1-0.7c0.2-1.1,0.2-1.9,0.2-3.5l0.1-1.4
		c0.1-0.2,0.1-1.2,0.1-2.2v-1.8c0.1,0,0.1-0.6,0.1-1.3l-0.1-0.9l0.1-0.5l-0.1-2.8l0.1-0.1L163,13c0-0.2,0-0.5,0.1-0.6l0.1-0.2
		l-0.2-0.6c-0.2-0.3-0.2-0.7-0.2-0.9l0.1-0.3c0-0.7-0.3-2.2-0.6-3.2l-0.1-0.3c0-0.1,0.1-0.2,0.2-0.2s0.1,0,0.1-0.1l-0.5-0.8h0.2
		c0.1,0,0.1-0.1,0.1-0.2l-0.2-1.8c0-0.2-0.1-0.4-0.2-0.4s-0.1-0.1-0.1-0.2V3.2c0-0.2,0-0.3-0.1-0.4s-0.1-0.2-0.1-0.4
		c0-0.2,0.1-0.5,0.2-0.5h0.1c0.1,0,0.3,0.2,0.5,0.6s0.4,0.5,0.5,0.5l0.1-0.1l-0.1-0.2l-0.1-0.3c0.1,0,0.4,0.3,0.7,0.9
		c0.2,0.6,0.6,0.9,0.6,0.9s0.2,0.1,0.2,0.2l-0.1,0.1l-0.2-0.1c0,0.1,0.1,0.1,0.2,0.2c0.2,0.2,0.4,0.2,0.5,0.2s0.1-0.1,0.1-0.1
		c0-0.1,0-0.2-0.2-0.2s-0.3-0.5-0.3-0.8c0-0.1,0-0.2,0.1-0.2s0.2-0.1,0.2-0.2c0.1,0,0.3,0.5,0.6,1.1c0.4,0.8,0.8,1.6,1,1.7
		c0.2,0.2,0.3,0.9,0.3,1.6c0,0.2,0.1,0.3,0.2,0.4l0.1,0.1h-0.1c-0.2,0-0.2,0.2-0.2,0.5c0.1,0.2,0.1,0.3,0.2,0.3l0.2-0.1l0.1,0.1
		c0,0.2-0.2,0.2-0.2,0.2c-0.2,0-0.2,0.1-0.2,0.2l0.1,0.3c0,0.3,0,0.6-0.1,0.6l-0.1,0.1l0.2,0.3l-0.1,0.1l-0.2-0.1H166l0.1,0.2
		c0,0.1,0.2,0.2,0.2,0.2s0.2,0,0.2,0.2l0.1,0.5l0.1,0.2l-0.1,0.1c-0.1,0-0.1,0.1-0.1,0.2l0.2,0.6l0.2,0.2h-0.1l-0.2-0.1l-0.1,0.2
		v0.1l-0.3-0.5v0.2c0,0.2,0.2,0.5,0.5,0.6l0.3,0.2h-0.4c-0.2,0-0.3,0.1-0.3,0.2c0,0.1,0.1,0.2,0.3,0.3h0.2c0.1,0,0.2-0.1,0.2-0.2
		s0.1-0.2,0.2-0.2l0.2-0.1l-0.2,0.3c-0.1,0.2-0.4,0.3-0.6,0.3s-0.2,0-0.2,0.1l0.1,0.1c0.2,0.2,0.2,0.4,0.2,0.6s0,0.3-0.1,0.3
		s-0.2,0.2-0.2,0.5l0.1,0.3l0.2-0.6l0.2,0.6l0.1-0.2c0.1-0.2,0.2-0.3,0.2-0.3v0.6c0,0.3,0,0.6,0.1,0.7h0.1v-0.6
		c0-0.2,0.1-0.2,0.2-0.3l0.2-0.1l-0.1,0.6l0.2,1.4l-0.1,0.1l-0.2-0.3c-0.2-0.2-0.2-0.2-0.2-0.2l0.1,0.3l-0.1,0.1H167
		c-0.2-0.1-0.2-0.2-0.2-0.5v-0.2c0-0.2-0.1-0.2-0.2-0.2h-0.1c-0.1,0-0.2,0.1-0.2,0.5c0.1,0.5,0.2,0.8,0.3,0.8c0.1,0,0.1-0.1,0.2-0.2
		v-0.1l0.1,0.3c0,0.2,0,0.3-0.1,0.3h-0.1c-0.1,0-0.1,0.1-0.1,0.2v0.2c0,0.2-0.1,0.4-0.2,0.4s-0.2,0.2-0.2,0.2s0.1,0.2,0.2,0.2h0.2
		v0.2c-0.2,0.3-0.2,0.5-0.2,0.7s0,0.4,0.1,0.6l0.2,0.4c0,0.1,0,0.1-0.1,0.1c-0.1,0-0.2,0.2-0.2,0.4c0,0.3,0,0.5-0.1,0.5
		s-0.2,0.1-0.2,0.2c0,0.2,0.1,0.2,0.1,0.2h0.1c0.1,0,0.1,0.2,0.1,1.1c0,0.2-0.1,0.2-0.1,0.2h-0.1c-0.1,0-0.2,0-0.2,0.2
		c0,0.1-0.1,0.2-0.2,0.2l-0.2-0.1l0.1,0.2l0.4,0.1c0.1,0,0.1,0.2,0.2,0.6v0.5l-0.2-0.5c-0.1,0-0.1,0.2-0.1,0.4s0,0.5,0.1,0.5
		s0.2,0.2,0.2,0.5c0,0.2-0.1,0.4-0.2,0.4l-0.1,0.1l0.1,0.4c0.2,0.2,0.3,0.4,0.5,0.4c0.1,0,0.2-0.1,0.2-0.2v-0.2c0-0.2,0-0.4,0.1-0.4
		c0.2,0,0.2,0.2,0.2,0.3s0,0.4-0.1,0.6s-0.2,0.3-0.4,0.3h-0.2c-0.1,0-0.1,0.1-0.2,0.5c0,0.4,0,0.7,0.1,0.9v0.2l-0.1,0.2
		c-0.1,0.1-0.2,0.5-0.2,1v0.4c0,0.4,0.1,0.5,0.5,0.5h0.1v0.1c0,0.1-0.1,0.2-0.2,0.2c-0.1,0-0.2,0.1-0.2,0.2s-0.2,0.2-0.3,0.2
		c-0.1,0-0.2,0-0.2,0.1L166,33c0.2,0.2,0.2,0.2,0.2,0.3l-0.6,1.1l0.1,0.3c0.1,0.4,0.2,0.6,0.4,0.6c0.1,0,0.2,0,0.2-0.2
		c0-0.2,0-0.3-0.1-0.3c-0.2-0.1-0.2-0.2-0.2-0.3s0.1-0.2,0.2-0.2h0.1c0,0,0.1-0.1,0.1-0.2v-0.4c0-0.5,0.1-1,0.2-1
		c0.1,0,0.1,0.1,0.1,0.2V33c-0.1,0.3-0.1,0.9-0.1,1.3c0,0.5,0,0.8,0.1,0.8c0.2,0,0.2-0.2,0.3-0.3l0.2-0.2v0.6c0,0.2,0,0.4-0.1,0.5
		s-0.1,0.2-0.2,0.2v-0.3l-0.2,0.3c-0.1,0-0.1-0.1-0.1-0.2c0-0.1,0-0.1-0.1-0.1c-0.1,0-0.2,0.8-0.2,1.5c0,0.4,0,1-0.1,1.3v0.5
		l0.1-0.1c0-0.2,0.2-0.3,0.2-0.3c0.2,0,0.2-0.1,0.2-0.3c0-0.2,0.1-0.3,0.2-0.4h0.1v0.3c-0.1,0.3-0.2,0.8-0.2,1.2l-0.1,0.6l-0.2-0.9
		l-0.1,0.2c0,0.2-0.2,0.4-0.2,0.5c-0.2,0-0.2,0.3-0.2,0.6v0.3l-0.1-0.2c-0.1-0.2-0.1-0.2-0.2-0.2h-0.2l0.1-0.2
		c0.2-0.2,0.4-0.5,0.4-0.8l-0.1-0.2c-0.1-0.1-0.1-0.2-0.2-0.2l-0.1,0.2h-0.1v-0.4c0.1-0.3,0.2-0.6,0.2-0.7h0.1v0.6l0.1-0.2l0.2-1.1
		c0-0.7,0-0.8-0.3-0.8c-0.2,0-0.2,0.1-0.2,0.2l-0.2,1.5c0,0.3-0.1,0.7-0.2,1c0,0.3,0,0.4,0.1,0.4l0.3-0.1l0.1,0.1
		c0,0.1-0.1,0.2-0.2,0.2c-0.1,0.1-0.2,0.2-0.2,0.4v0.2c0,0.2,0,0.4,0.1,0.4l0.1-0.2c0.1,0,0.1,0.2,0.1,0.7c0,0.4,0,0.6,0.1,0.6
		l0.1-0.6c0.1-0.2,0.2-0.4,0.2-0.4s0.1,0,0.1,0.1l-0.1,1c-0.1,0.4-0.1,0.8-0.2,0.9s-0.1,0.3-0.2,1.9l-0.2,2.1l-0.1,1.8
		c0,0.2,0,0.3-0.1,0.3s-0.1,0.1-0.1,0.2c0,0.1-0.1,0.3-0.2,0.5l-0.2,0.2h-0.1l0.2-0.7v-0.1c0-0.1-0.1-0.2-0.2-0.2
		c-0.2,0-0.3,0-0.3,0.2l0.2,0.6l-0.1,0.1l-0.2-0.2c-0.1,0-0.1,0.1-0.2,0.3c0,0.3,0,0.5,0.2,0.7c0.2,0.2,0.2,0.3,0.2,0.4
		c-0.1,0-0.2-0.1-0.2-0.2l-0.2-0.2h-0.1l0.1,0.3c0.1,0.2,0.2,0.3,0.3,0.3s0.2,0.2,0.2,0.4c0,0.6,0,0.7,0.2,0.7
		c0.1,0,0.2-0.2,0.2-0.3c0.1-0.2,0.2-0.3,0.2-0.3h0.1c0.1,0,0.1-0.1,0.1-0.2l-0.1-0.2h0.2c0.1,0,0.2,0.2,0.2,0.3s-0.1,0.3-0.2,0.5
		l-0.2,0.3l0.1,0.2c0,0.1,0,0.2-0.1,0.3s-0.1,0.2-0.1,0.3l0.1,0.2l-0.2,0.1c-0.1,0-0.2-0.2-0.2-0.5l-0.1-0.4l-0.1,0.5l-0.2,0.9
		c-0.1,0.2-0.2,0.2-0.3,0.2s-0.3-0.2-0.4-0.4h-0.1V54c0,0.3-0.1,0.5-0.2,0.5l-0.2,0.1v0.1c0,0.2,0.1,0.2,0.2,0.2
		c0.2,0,0.2-0.1,0.4-0.3l0.2-0.3v0.3c0,0.2,0.1,0.2,0.2,0.2l0.2-0.1v0.2l-0.2,0.1c-0.2,0-0.2,0.3-0.2,0.6l0.1,0.4l0.1,0.2
		c0,0.5-0.2,1.4-0.5,1.8l-0.1,0.4v0.2c0,0.2-0.1,0.2-0.2,0.2c-0.2,0-0.3,0.1-0.3,0.2s0,0.2,0.2,0.4c0.1,0,0.1,0.2,0.1,0.3
		s0,0.5-0.2,1c-0.2,0.6-0.3,1.1-0.4,1.1s-0.2,0.1-0.2,0.2s-0.1,0.2-0.2,0.2c-0.1,0.1-0.2,0.4-0.2,0.8s-0.1,0.7-0.2,0.8
		c-0.1,0-0.2,0.2-0.2,0.3c0,0.2-0.2,0.5-0.3,0.6s-0.2,0.4-0.2,0.7s-0.1,0.6-0.2,0.6l-0.1,0.1c0,0.2,0.2,0.2,0.2,0.2l0.2-0.1
		l-0.1,0.1c-0.1,0.2-0.2,0.2-0.6,0.2c-0.2,0-0.2,0.2-0.2,0.3s-0.1,0.3-0.2,0.4l-0.2,0.1c-0.1,0-0.1-0.1-0.2-0.2
		c0-0.2-0.1-0.2-0.2-0.2l-0.2,0.2l-0.1,0.3h0.5c0.5,0,0.6,0.1,0.6,0.4c0,0.2-0.1,0.4-0.2,0.4h-0.1c-0.1,0-0.2,0.2-0.2,0.3l-0.1,0.3
		c0,0.1,0,0.1,0.1,0.1h0.1c0,0.1-0.1,0.1-0.2,0.2s-0.3,0.3-0.4,0.6c0,0.2-0.1,0.5-0.2,0.5h-0.2l0.2,0.2l0.2,0.2l-0.4,0.2
		c-0.3,0.2-0.5,0.4-0.5,0.5s0.1,0.1,0.2,0.1s0.2-0.1,0.2-0.2v-0.2l0.1,0.2c0,0.1-0.2,0.2-0.4,0.5c-0.3,0.3-0.6,0.6-0.6,0.6
		c0,0.2-0.2,0.3-0.3,0.4l-0.1,0.2c0,0.1,0,0.1,0.1,0.1c0.1,0,0.4-0.2,0.6-0.3c0.2-0.2,0.4-0.3,0.5-0.3l0.1,0.1l-0.4,0.7
		c-0.3,0.5-0.6,0.8-0.6,0.8s-0.2,0.2-0.4,0.3c-0.6,0.6-1.6,0.8-2.8,0.8s-2.6-0.2-4.1-0.7c-1.8-0.6-2.7-1-3.4-1.6
		c-0.2-0.2-0.5-0.4-0.6-0.4c-0.2,0-1.4-1.2-1.9-1.8l-0.8-1c-0.5-0.6-1-1.5-1.8-3.5c-0.8-1.8-1.1-3.1-1.7-5.5c-1-4.6-1.3-6.3-1.3-7.1
		c0-0.4,0.1-0.5,0.2-0.6l0.2-0.2c0-0.1-0.1-0.2-0.2-0.3s-0.3-0.6-0.4-1.2l-0.2-2.4c-0.1-0.8-0.2-1.8-0.4-2.2c-0.1-0.3-0.3-2-0.5-3.7
		l-1.7-16.9c-0.2-1-0.3-2.6-0.4-3.5c-0.2-1-0.2-1.9-0.3-2.2l-0.2-1.6l-1.2-6c-0.1-0.5-0.2-0.7-0.2-0.7v0.6c0,1,0,2.2-0.2,2.6
		c-0.2,0.5-0.2,2.3-0.2,3.3v1.1c-0.1,0.4-0.2,1.5-0.2,2.5c0,0.3,0,0.8-0.1,1l-0.1,1.5l-0.2,0.1c-0.2,0-0.2-0.2-0.2-0.8
		c-0.1-0.1-0.1-0.2-0.2-0.2h-0.1c-0.2,0.1-0.2,0.2-0.2,0.2s0.1,0.2,0.2,0.2l0.2,0.1c0,0.1,0,0.1-0.1,0.1c-0.2,0.1-0.2,0.2-0.2,0.3
		c0,0.1,0.1,0.1,0.2,0.1h0.1c0.2,0,0.5,0.4,0.5,0.8v1c0,1-0.2,2-0.2,2.3c-0.1,0.2-0.2,0.6-0.2,1c-0.1,0.3-0.2,0.6-0.2,0.6
		c-0.2,0-0.2-0.2-0.2-0.5v-0.2c0-0.1,0-0.2-0.1-0.2l-0.1,0.1l-0.2-0.3c-0.2,0-0.2,0.2-0.2,0.3v0.2c0,0.7-0.2,2.2-0.2,2.5
		c0,0.1,0,0.3,0.1,0.4l0.1,0.1l0.2-0.4l0.1,0.2c0,0.2-0.1,0.3-0.2,0.3h-0.1c-0.2,0-0.2,0.2-0.2,0.8c0,0.5-0.1,1-0.2,1
		s-0.1,0.4-0.1,0.6s0,0.4,0.1,0.4l0.3-0.5l0.1,0.1l-0.3,0.8c-0.2,0.4-0.4,1-0.5,1.5c0,0.7-0.2,1.1-0.5,1.1c-0.1,0-0.1-0.2-0.1-0.5
		l0.1-0.3l-0.1-0.2c-0.1,0-0.2,0.2-0.4,0.5l-0.2,0.4c0,0.1,0.1,0.1,0.2,0.1c0.1,0,0.2,0,0.2,0.1l-0.2,0.3c0,0.2,0.2,0.5,0.5,0.5h0.2
		c0.1,0,0.2,0,0.2,0.2l-0.1,0.5v0.6l0.1-0.1l0.2-0.6c0-0.2,0-0.4,0.2-0.4c0.1,0,0.1,0.2,0.1,0.3v0.2c0,0.1,0.1,0.2,0.2,0.2
		c0.1,0,0.2,0,0.2,0.1l-0.2,0.2c-0.2,0.1-0.3,0.2-0.3,0.4v0.5c0.1,0,0.2-0.1,0.2-0.2l0.2-0.2l0.1,0.1c0,0.2-0.1,0.3-0.2,0.4
		c0,0.1-0.2,0.2-0.3,0.2s-0.3-0.1-0.3-0.2l-0.2,0.1l-0.2,0.3c0,0.1,0.1,0.2,0.2,0.2l0.2-0.1c0.1,0,0.2,0.1,0.2,0.2
		c-0.1,0.2-0.2,0.2-0.3,0.2c-0.1,0-0.2,0-0.4-0.1c-0.1-0.1-0.1-0.2-0.1-0.3v-0.2c0-0.2,0-0.3-0.1-0.3l-0.2,0.1
		c-0.2,0.1-0.2,0.2-0.2,0.2l-0.1,0.8l-0.2,0.7c0,0.2,0.1,0.2,0.2,0.2c0.2,0,0.3-0.1,0.3-0.3s0.2-0.4,0.4-0.4l0.3,0.1
		c0.2,0.1,0.2,0.2,0.2,0.6l-0.2,1.2c0,0.1,0,0.2,0.1,0.2h0.2c0.2,0,0.2,0,0.2,0.1l-0.1,0.2c-0.1,0.1-0.1,0.2-0.1,0.4v0.2
		c0,0.2-0.1,0.6-0.2,0.8c-0.1,0.2-0.2,0.6-0.2,0.8c-0.1,0.3-0.2,0.4-0.6,0.5c-0.4,0-0.4,0.1-0.4,0.8c0,0.5,0,1-0.1,1.2
		s-0.2,0.8-0.2,1.2c-0.1,0.5-0.2,0.9-0.2,1l-0.1,0.2c0,0.2,0.1,0.2,0.2,0.2h0.1c0.1,0,0.1,0.1,0.1,0.2l-0.2,1.6
		c-0.1,0.6-0.2,1-0.3,1c-0.2,0-0.4,0.3-0.4,0.6c0,0.1,0.2,0.1,0.3,0.1l0.2-0.1v0.2c-0.1,0.2-0.1,0.3-0.1,0.4s-0.2,0.2-0.5,0.2
		c-0.2,0-0.2,0-0.2,0.1h0.1c0.1,0.1,0.1,0.2,0.1,0.3v0.6l0.3-0.1c0.1,0,0.2,0.1,0.2,0.3l-0.1,0.6c-0.1,0.3-0.2,1-0.2,1.5
		c-0.1,0.5-0.2,1-0.3,1.1l-0.1,0.2l0.1,0.2l0.1,0.2v0.1c0,0.2,0,0.4,0.2,0.6l0.1,0.3L128,63l0.1,0.2v0.2l-0.1-0.1
		c-0.2-0.1-0.2-0.2-0.2-0.3s-0.1-0.2-0.2-0.2c-0.2,0-0.3,0.2-0.4,0.5l-0.1,1.3c0,0.2,0,0.2,0.1,0.2l0.2-0.1c0.1,0,0.1,0.2,0.1,0.4
		l-0.1,0.3l0.1,0.1l0.3-0.2c0.1,0,0.1,0.1,0.1,0.2c0,0.2-0.1,0.6-0.3,1s-0.4,0.6-0.4,0.7l0.1,0.1c0.1,0,0.1-0.1,0.2-0.2l0.2-0.3v0.2
		c0,0.2-0.1,0.6-0.2,0.9l-0.2,0.4h0.1c0.1,0,0.1,0,0.1,0.1l0.1,0.1h0.2v0.4l0.2-0.2l-0.3,2.7c0,0.2,0.1,0.4,0.2,0.4l0.5-0.6l0.1,0.1
		l-0.4,1.5c-0.2,0.4-0.2,0.7-0.2,1c0,0.2,0.1,0.2,0.2,0.2h0.2c0.1,0,0.2,0,0.2,0.1l-0.2,0.2c-0.1,0.1-0.1,0.2-0.1,0.2
		c0,0.2,0.1,0.2,0.2,0.2l0.2-0.1v0.2c-0.2,0.3-1.1,0.6-2.1,0.6l0,0L126.2,75.5z M163.8,3.2L163.7,3c0-0.1,0-0.1,0.1-0.1l0.1,0.1
		L163.8,3.2z M164.7,5.1l0.1-0.2l-0.2-0.1c0,0-0.1,0-0.1,0.1C164.6,5.1,164.7,5.1,164.7,5.1z M165.2,5.9c0.2,0,0.2-0.1,0.2-0.2
		c-0.1-0.2-0.2-0.2-0.3-0.2s-0.2,0-0.2,0.2S165.1,5.9,165.2,5.9z M166.1,6.7V6.6c0-0.2-0.1-0.3-0.2-0.4c-0.1-0.2-0.1-0.2-0.2-0.2
		c0,0,0.1,0.1,0.1,0.2L166.1,6.7C166,6.7,166,6.7,166.1,6.7z M165.6,10.1c0.1,0,0.1-0.1,0.1-0.2c0-0.1-0.1-0.2-0.2-0.2
		s-0.2,0.2-0.2,0.2C165.5,10,165.5,10.1,165.6,10.1z M166.3,11.5l0.1-0.2l-0.2-0.2v0.2C166.2,11.5,166.2,11.5,166.3,11.5z
		 M139.6,12.2v-0.2h-0.1c-0.1,0-0.1,0-0.1,0.1C139.4,12.2,139.5,12.2,139.6,12.2z M166,12.8l0.1-0.2l-0.2-0.1v0.1
		C165.9,12.8,166,12.8,166,12.8z M167.3,13.3c0,0-0.1,0-0.1-0.2c0-0.1,0-0.1,0.1-0.1l0.1,0.1L167.3,13.3z M166.6,13.8
		c-0.1,0-0.1-0.1-0.2-0.2c0-0.1,0.1-0.1,0.1-0.1h0.1V13.8z M167.5,15.3l-0.2-0.4l0.2-0.6c0.1,0,0.1,0.2,0.1,0.4
		C167.6,15.1,167.6,15.3,167.5,15.3z M166.9,15.2l-0.1-0.3c0-0.2,0.1-0.3,0.2-0.3s0.1,0.2,0.1,0.3C167.1,15.1,167,15.2,166.9,15.2z
		 M166,15.7l0.1-0.2l-0.1-0.2c0-0.1,0-0.1-0.1-0.1v0.2C165.9,15.6,166,15.7,166,15.7z M132.8,17.3v-0.2h-0.1c0,0-0.1,0-0.1,0.1
		C132.7,17.3,132.7,17.3,132.8,17.3z M165.7,18L165.7,18c0.2-0.2,0.3-0.3,0.4-0.3l0.1,0.1l0.1-0.1c0-0.2-0.3-0.3-0.6-0.3l-0.2,0.1
		l-0.1,0.2l0.1,0.2C165.6,18,165.6,18,165.7,18L165.7,18z M164.8,18.6c0.1,0,0.2-0.1,0.2-0.2s-0.1-0.2-0.2-0.2l-0.2,0.2
		C164.6,18.5,164.7,18.6,164.8,18.6z M165.8,18.6v-0.2h-0.1c-0.1,0-0.1,0-0.1,0.1C165.6,18.6,165.7,18.6,165.8,18.6z M167.4,20
		c-0.1,0-0.1-0.1-0.1-0.3v-0.4c0-0.6,0-0.9,0.1-0.9l0.2,0.6v0.4L167.4,20L167.4,20z M163.7,19.1l0.1-0.2c0-0.1-0.1-0.2-0.2-0.2
		l-0.1,0.1l0.1,0.1C163.5,19,163.6,19.1,163.7,19.1z M165.1,19.9L165.1,19.9c0.2-0.1,0.2-0.2,0.2-0.3v-0.1h-0.2
		C165.1,19.5,165,19.6,165.1,19.9L165.1,19.9z M166.1,20.8c0.1,0,0.1-0.2,0.1-0.3v-0.3c0-0.4-0.1-0.6-0.2-0.6c0,0-0.1,0.2-0.1,0.6
		C165.9,20.5,166,20.8,166.1,20.8z M132.6,20l0.1-0.2l-0.2-0.1v0.1C132.6,20,132.6,20,132.6,20z M167.5,20.9L167.5,20.9
		c-0.1,0-0.2,0-0.2-0.1c0-0.2,0.1-0.3,0.2-0.4h0.1l0.1,0.2C167.7,20.7,167.6,20.9,167.5,20.9z M166.1,21.5v-0.3l-0.1-0.1v0.2
		C166,21.4,166,21.5,166.1,21.5z M167.4,21.8C167.4,21.8,167.4,21.7,167.4,21.8l-0.1-0.2c0-0.1,0.1-0.2,0.2-0.2l0.1,0.2
		C167.6,21.7,167.5,21.8,167.4,21.8z M165.5,22.1c0.1,0,0.2-0.1,0.2-0.2c0-0.1,0-0.2-0.1-0.2C165.5,21.8,165.4,21.9,165.5,22.1
		C165.4,22.1,165.4,22.1,165.5,22.1z M141.6,22.1c0.1,0,0.2-0.1,0.2-0.2l-0.1-0.2l-0.2,0.2C141.5,22,141.5,22.1,141.6,22.1z
		 M167.1,23.7c-0.1,0-0.2-0.2-0.2-0.5V23c0-0.2,0-0.2,0.1-0.2s0.2-0.1,0.2-0.2s-0.1-0.2-0.2-0.3l-0.1-0.1l0.3-0.2
		c0.1,0.1,0.1,0.2,0.1,0.6v0.9C167.3,23.7,167.2,23.7,167.1,23.7z M166,22.7l0.2-0.2c0-0.1-0.1-0.2-0.2-0.2c-0.1,0-0.1,0-0.1,0.1
		v0.1C165.8,22.7,165.9,22.7,166,22.7z M132.5,22.7l-0.1-0.2c-0.1,0-0.1,0.1-0.1,0.1l-0.1,0.1H132.5z M126,23.1L126,23.1
		c-0.1-0.1-0.1-0.2-0.2-0.2l-0.1,0.2C125.8,23.1,126,23.1,126,23.1z M141.9,23.5v-0.2h-0.1l-0.1,0.1
		C141.7,23.5,141.8,23.5,141.9,23.5z M125.8,23.9l0.1-0.2l-0.1-0.2c0-0.1-0.1-0.1-0.1-0.1v0.2C125.8,23.8,125.8,23.9,125.8,23.9z
		 M165.4,24.7c0.1,0,0.1-0.1,0.2-0.4c0-0.3,0-0.4-0.1-0.5c-0.1,0-0.2,0.2-0.2,0.4l-0.1,0.3l0.1,0.2H165.4z M167.1,24.7
		c-0.1,0-0.2-0.1-0.2-0.3c0-0.2,0.1-0.3,0.2-0.3s0.2,0.2,0.2,0.3C167.3,24.6,167.2,24.7,167.1,24.7z M167.1,25.1
		c-0.1,0-0.1-0.1-0.1-0.2v-0.1l0.2,0.1L167.1,25.1z M167.2,26L167.2,26l-0.1-0.3H167c0-0.2,0.1-0.2,0.1-0.2v0.1
		C167.2,25.7,167.2,25.9,167.2,26z M163.2,26.1c0.1,0,0.2,0,0.2-0.1l-0.2-0.2l-0.1,0.1C163,26,163.1,26.1,163.2,26.1z M142.2,26.6
		l0.1-0.2l-0.1-0.1c-0.1,0-0.1,0-0.1,0.1C142.1,26.6,142.2,26.6,142.2,26.6z M167.7,26.7c0,0-0.1,0-0.1-0.2c0-0.1,0-0.1,0.1-0.1
		l0.1,0.1L167.7,26.7z M167.8,27.4c-0.1,0-0.2-0.1-0.2-0.2l0.1-0.2l0.1,0.1V27.4z M167.6,28c0,0-0.1-0.1-0.1-0.2v-0.2
		c0,0,0.1,0,0.1,0.1l0.1,0.2L167.6,28z M163.3,28l-0.1-0.2c-0.1,0-0.1,0.1-0.1,0.1V28H163.3z M131.9,28.8l0.1-0.2l-0.2-0.1v0.1
		C131.9,28.8,131.9,28.8,131.9,28.8z M167,30.4c-0.1,0-0.1-0.4-0.1-0.8c0-0.5,0.1-0.9,0.2-0.9h0.1c0.1,0,0.1,0.1,0.1,0.3
		c-0.1,0.2-0.2,0.6-0.2,0.8S167,30.3,167,30.4z M130,30.1l0.2-0.1c0.1,0,0.1-0.1,0.1-0.2v-0.4l-0.2,0.2l-0.1,0.3V30.1z M130.7,30.4
		l0.1-0.2l-0.1-0.1c-0.1,0-0.1,0-0.1,0.1C130.7,30.4,130.7,30.4,130.7,30.4z M131.9,31.2l-0.2-0.1v-0.5c0.1-0.1,0.1-0.2,0.2-0.2
		V31.2z M129.3,31.1c0.1,0,0.2-0.1,0.2-0.2v-0.1c-0.1-0.1-0.1-0.2-0.2-0.2h-0.1l-0.2,0.2C129,31,129.1,31.1,129.3,31.1z M143,31.2
		c-0.1,0-0.1-0.1-0.1-0.2V31l0.2,0.1L143,31.2z M166.9,31.4c-0.1,0-0.1-0.1-0.1-0.2v-0.1l0.2,0.1L166.9,31.4z M130.5,31.5
		L130.5,31.5c0.2-0.1,0.2-0.2,0.2-0.3s-0.1-0.1-0.1-0.1h-0.1C130.5,31.2,130.4,31.3,130.5,31.5L130.5,31.5z M143.1,32.2
		c-0.1,0-0.2-0.2-0.2-0.4l0.1-0.3h0.1c0.1,0.1,0.2,0.2,0.2,0.4C143.2,32.1,143.2,32.2,143.1,32.2z M131.9,32c-0.1,0-0.1-0.1-0.2-0.2
		l-0.2-0.2c0-0.1,0.1-0.1,0.2-0.1s0.2,0.1,0.2,0.2L131.9,32z M142.8,32c-0.1,0-0.2,0-0.2-0.2c0-0.1,0-0.1,0.1-0.1
		C142.8,31.9,142.8,31.9,142.8,32z M165.9,32.3c0.2,0,0.2-0.1,0.2-0.2c0-0.1-0.1-0.2-0.2-0.2s-0.2,0.2-0.2,0.2
		C165.7,32.3,165.8,32.3,165.9,32.3z M131.8,32.9l-0.2-0.3v-0.4c0.1,0,0.2,0.3,0.2,0.6L131.8,32.9z M130.1,33l0.2-0.2
		c0-0.1,0-0.2-0.1-0.2s-0.2,0.2-0.2,0.2C130,32.9,130,33,130.1,33z M141.6,33l0.2-0.2v-0.1c0-0.1,0-0.1-0.1-0.1
		c-0.1,0-0.2,0.1-0.2,0.2S141.6,33,141.6,33z M131.7,33.5c-0.2,0-0.2-0.1-0.2-0.2l0.1-0.1L131.7,33.5
		C131.8,33.4,131.8,33.5,131.7,33.5z M130.3,34.1c0.1,0,0.1-0.1,0.2-0.2l0.2-0.3c0-0.1-0.1-0.1-0.1-0.1h-0.1
		c-0.1,0.1-0.2,0.2-0.2,0.4V34.1z M131.6,34.1c0,0-0.1,0-0.1-0.2c0-0.1,0-0.1,0.1-0.1l0.1,0.1L131.6,34.1z M167.4,34.3
		c0,0-0.1,0-0.1-0.2c0-0.1,0-0.1,0.1-0.1l0.1,0.1L167.4,34.3z M142.7,34.4l0.1-0.2l-0.1-0.2c0-0.1,0-0.1-0.1-0.1v0.2
		C142.6,34.3,142.7,34.4,142.7,34.4z M129.9,34.7l0.1-0.2l-0.1-0.2h-0.1l-0.1,0.2C129.8,34.7,129.8,34.7,129.9,34.7z M143.4,35.2
		c-0.1,0-0.1-0.1-0.1-0.2v-0.2c0-0.2,0-0.2,0.1-0.2c0-0.1,0-0.1,0.1-0.1l0.1,0.2C143.6,34.9,143.5,35.1,143.4,35.2z M164.7,34.7
		c0.1,0,0.2,0,0.2-0.1l-0.2-0.1V34.7C164.6,34.7,164.7,34.7,164.7,34.7z M165.7,35.1l0.1-0.2l-0.2-0.1c0,0-0.1,0-0.1,0.1
		C165.6,35,165.6,35.1,165.7,35.1z M129.6,35.7l0.4-0.2c0.2-0.1,0.3-0.3,0.3-0.5l-0.1-0.2l-0.1,0.2c0,0.1-0.1,0.2-0.2,0.2h-0.3
		l-0.1,0.3L129.6,35.7L129.6,35.7z M131.4,35.2L131.4,35.2v-0.2c0-0.1,0.1-0.2,0.2-0.2v0.2C131.5,35.1,131.4,35.2,131.4,35.2z
		 M164.6,35.7c0.1,0,0.2-0.1,0.2-0.2c0-0.1-0.1-0.2-0.2-0.2s-0.2,0.2-0.2,0.2C164.5,35.6,164.6,35.7,164.6,35.7z M165.8,35.8
		C165.9,35.8,165.9,35.8,165.8,35.8l-0.1-0.2l-0.2-0.1l-0.2,0.1c0,0.1,0.1,0.2,0.2,0.2L165.8,35.8z M166.7,36.5
		c-0.1,0-0.1-0.1-0.1-0.2v-0.1l0.1-0.2h0.1C166.8,35.9,166.7,36.5,166.7,36.5z M141,36.5l0.2-0.1l0.1-0.3c-0.1,0-0.2,0.1-0.2,0.2
		L141,36.5z M143.5,36.8v-0.2l-0.1-0.2l-0.2-0.1l-0.2,0.1c-0.1,0.1-0.2,0.1-0.2,0.2h0.2C143.2,36.5,143.4,36.6,143.5,36.8
		C143.4,36.8,143.4,36.8,143.5,36.8z M129.7,36.9c0.2-0.1,0.2-0.2,0.2-0.3c0-0.1-0.1-0.2-0.2-0.2l-0.2,0.1l-0.1,0.3v0.1
		C129.5,36.9,129.5,36.9,129.7,36.9C129.7,36.9,129.7,36.9,129.7,36.9z M167,36.7c-0.1,0-0.1-0.1-0.1-0.2v-0.1l0.2,0.1L167,36.7z
		 M131.1,37l-0.1-0.2c0-0.1,0.1-0.2,0.2-0.2s0.1,0,0.1,0.1v0.1C131.3,36.9,131.2,37,131.1,37z M143.1,37c0-0.1,0-0.2-0.1-0.2
		c-0.1,0-0.1,0-0.1,0.1C142.9,37,143,37,143.1,37z M164.9,37l0.1-0.2l-0.1-0.1c-0.1,0-0.1,0-0.1,0.1C164.9,37,164.9,37,164.9,37z
		 M141.1,37.1c0.2,0,0.2-0.1,0.2-0.2s-0.1-0.2-0.2-0.2l-0.2,0.2C140.9,37.1,141,37.1,141.1,37.1z M167.1,37.1c-0.1,0-0.2,0-0.2-0.2
		c0-0.1,0-0.1,0.1-0.1C167.1,37,167.1,37.1,167.1,37.1z M129.9,37.5c0.1,0,0.1-0.1,0.1-0.2c-0.1-0.1-0.1-0.2-0.2-0.2l-0.2,0.1
		L129.9,37.5z M130.6,38.3L130.6,38.3l0.1-0.6l0.1-0.1c0.1,0,0.1,0,0.1,0.1L130.6,38.3z M131,39.2c0,0-0.1-0.1-0.1-0.2v-0.2
		c0.1,0,0.1,0,0.1,0.1l0.1,0.2L131,39.2z M130.1,39.4c-0.1,0-0.2-0.1-0.2-0.2l0.2-0.2h0.1l0.1,0.2C130.2,39.3,130.2,39.4,130.1,39.4
		z M130.5,39.4v-0.2l0.2-0.2l0.1,0.1l-0.1,0.1C130.6,39.3,130.6,39.4,130.5,39.4z M143.7,39.7v-0.2h-0.1l-0.1,0.1
		C143.5,39.7,143.6,39.7,143.7,39.7z M128.2,40.7l0.2-0.2l-0.1-0.1l-0.2-0.5c-0.1-0.2-0.1-0.3-0.2-0.3V40
		C127.9,40.4,128,40.7,128.2,40.7z M130.9,40c-0.1,0-0.1-0.1-0.1-0.2v-0.1l0.2,0.1L130.9,40z M129.3,40.9l-0.1-0.6l-0.2-0.3
		c-0.1,0-0.1,0-0.1,0.1l-0.1,0.2C128.9,40.5,129.1,40.9,129.3,40.9C129.2,40.9,129.3,40.9,129.3,40.9z M142.4,40.3l0.1-0.2l-0.1-0.1
		c-0.1,0-0.1,0-0.1,0.1C142.3,40.3,142.4,40.3,142.4,40.3z M166.8,40.3c-0.1,0-0.1-0.1-0.1-0.2v-0.1l0.2,0.1L166.8,40.3z
		 M144.2,42.9l-0.2-0.8l-0.1-0.8l0.1-0.6c0.1,0,0.1,0.3,0.2,1V42.9z M143.5,42.3L143.5,42.3c0.1-0.3,0.1-0.6,0-0.9v-0.2l-0.1,0.1
		l0.1,0.4C143.5,41.7,143.5,42.3,143.5,42.3z M128.2,42.2C128.2,42.2,128.2,42.2,128.2,42.2c0.1-0.2,0.1-0.2,0-0.3l-0.1-0.2v-0.2
		c0-0.1,0-0.2-0.1-0.2v-0.1l-0.1,0.1c0,0-0.2,0.1-0.2,0.2l-0.1,0.3c0,0.1,0.1,0.2,0.2,0.2L128.2,42.2z M165.1,42.6
		c0.1,0,0.1-0.2,0.2-0.4c0-0.2-0.1-0.4-0.2-0.4h-0.1c-0.1,0-0.2,0-0.2,0.1c0,0.2,0.1,0.2,0.2,0.2s0.1,0.2,0.1,0.2
		C165,42.3,165.1,42.6,165.1,42.6z M124.1,42.4L124.1,42.4c0.2-0.1,0.2-0.2,0.2-0.2V42h-0.2c-0.1,0.1-0.1,0.2-0.1,0.2L124.1,42.4z
		 M165.5,42.4c0.2,0,0.2-0.1,0.2-0.2s0-0.2-0.1-0.2l-0.2,0.2C165.4,42.3,165.4,42.4,165.5,42.4z M127.5,43.3l0.3-0.1
		c0.2-0.2,0.2-0.2,0.2-0.3v-0.1c-0.1,0-0.1-0.2-0.1-0.3v-0.1c0-0.1-0.1-0.2-0.2-0.2c-0.2,0-0.2,0.2-0.2,0.3s0,0.4-0.1,0.6
		C127.5,43.1,127.5,43.3,127.5,43.3z M166.5,43.1c-0.1,0-0.2-0.1-0.2-0.2l0.2-0.2c0.1,0,0.2,0.1,0.2,0.2
		C166.7,43,166.6,43.1,166.5,43.1z M129.8,43.3c0.1,0,0.1-0.1,0.1-0.2V43l-0.2-0.2c-0.1,0.1-0.1,0.2-0.1,0.3S129.8,43.3,129.8,43.3
		L129.8,43.3z M124.1,43.1c0-0.1,0-0.2-0.1-0.2c-0.1,0-0.1,0-0.1,0.1C123.9,43.1,124,43.1,124.1,43.1z M143,44.7
		c0.1,0,0.1-0.2,0.1-0.4c-0.1-0.4-0.2-1.1-0.3-1.2v0.7C142.8,44.3,142.9,44.7,143,44.7z M144.4,43.6L144.4,43.6
		c-0.2,0-0.2-0.1-0.2-0.2c0-0.1,0.1-0.2,0.2-0.2s0.2,0.1,0.2,0.2S144.4,43.6,144.4,43.6z M130.4,43.8L130.4,43.8l-0.1-0.2
		c0-0.2,0.1-0.2,0.2-0.2v0.2C130.5,43.6,130.5,43.7,130.4,43.8z M123.6,43.9c0,0,0.1-0.1,0.1-0.2l0.1-0.2l-0.2-0.1
		c-0.1,0-0.1,0.2-0.1,0.2C123.5,43.8,123.5,43.9,123.6,43.9z M165.4,45.5v-0.7l-0.2,0.2l-0.1,0.2v-0.3c0-0.2,0.1-0.3,0.2-0.4
		c0.2,0,0.2-0.2,0.2-0.6l-0.1-0.4c-0.1,0-0.2,0.2-0.3,0.6l-0.4,0.9c0,0.1,0.1,0.2,0.2,0.3L165.4,45.5z M166.4,44.1
		c0,0-0.1-0.1-0.1-0.2v-0.2c0.1,0,0.1,0,0.1,0.1V44.1z M128.8,44.2L129,44l0.1-0.2l-0.2-0.2c-0.2,0.1-0.2,0.2-0.2,0.3L128.8,44.2z
		 M142.1,44.2l-0.2-0.2c-0.1,0-0.1,0.1-0.1,0.1v0.1C141.9,44.2,142.1,44.2,142.1,44.2z M129.4,44.7c0.1,0,0.2-0.1,0.2-0.2l0.1-0.1
		l-0.2-0.1c-0.1,0-0.2,0.1-0.2,0.2C129.4,44.6,129.4,44.7,129.4,44.7z M127.4,45l0.1-0.2l-0.2-0.1v0.1C127.3,44.9,127.3,45,127.4,45
		z M143.1,45.6l0.1-0.2l-0.1-0.5l-0.2-0.1l-0.1,0.2C142.8,45,143.1,45.6,143.1,45.6z M142,45.1c0.1,0,0.1-0.1,0.1-0.2l-0.3-0.2
		l-0.1,0.1l0.1,0.1C141.8,45.1,141.9,45.1,142,45.1z M128.6,45.7c0.2,0,0.3-0.1,0.3-0.2v-0.1c-0.1-0.2-0.2-0.3-0.3-0.3l-0.2-0.1
		c0,0.1,0.1,0.1,0.2,0.2l0.1,0.1c0,0.1-0.1,0.1-0.2,0.2c-0.1,0.1-0.2,0.1-0.2,0.2v0.1C128.4,45.7,128.5,45.7,128.6,45.7z
		 M144.4,46.5L144.4,46.5l0.1-0.9l-0.2-0.6h-0.1l-0.1,0.2L144.4,46.5z M166.1,45.8L166.1,45.8c0-0.3,0.2-0.6,0.2-0.6v-0.1l0.1,0.1
		c0,0.2-0.1,0.4-0.2,0.5C166.2,45.6,166.1,45.8,166.1,45.8z M141.7,45.5c0.1,0,0.2,0,0.2-0.1l-0.2-0.2h-0.2v0.1
		C141.5,45.4,141.6,45.5,141.7,45.5z M129.9,45.6c0.1,0,0.2-0.1,0.2-0.2l0.1-0.1l-0.1-0.1l-0.2,0.2
		C129.9,45.5,129.9,45.6,129.9,45.6z M126,45.6c0-0.1,0-0.2-0.1-0.2c-0.1,0-0.1,0-0.1,0.1C125.8,45.6,125.9,45.6,126,45.6z
		 M165.8,45.8c0,0-0.1,0-0.1-0.2c0-0.1,0-0.1,0.1-0.1l0.1,0.1L165.8,45.8z M164.5,48.5l0.3-0.2c0.2-0.1,0.3-0.3,0.3-0.6v-0.2
		l0.1-0.6l0.1-0.4l-0.2-0.5c-0.2-0.2-0.3-0.3-0.5-0.3s-0.3,0.1-0.3,0.4c0.1,0.2,0.2,0.2,0.2,0.2h0.2c0.2,0,0.3,0,0.3,0.1
		s-0.1,0.2-0.2,0.2s-0.2,0.2-0.2,0.5c-0.1,0.3-0.2,0.5-0.3,0.5s-0.2,0.1-0.2,0.2l0.1,0.3C164.4,48.4,164.4,48.5,164.5,48.5
		L164.5,48.5z M143.3,46.1V46c0-0.1-0.1-0.2-0.2-0.2s-0.1,0.1-0.1,0.2C143.1,46,143.2,46.1,143.3,46.1z M128.4,46.4l0.1-0.2
		l-0.2-0.1v0.1C128.3,46.4,128.3,46.4,128.4,46.4z M166,47.1c-0.1,0-0.2,0-0.2-0.1s0.1-0.3,0.2-0.5l0.2-0.2v0.2
		c-0.1,0.2-0.1,0.3-0.1,0.4S166.1,47.1,166,47.1z M129.4,47.3c0.2,0,0.3-0.3,0.5-0.6v-0.2l-0.1,0.2c-0.2,0.2-0.2,0.3-0.3,0.3
		l-0.2,0.1C129.4,47.2,129.3,47.3,129.4,47.3L129.4,47.3z M122.6,46.8c0,0-0.1,0-0.1-0.2c0-0.1,0-0.1,0.1-0.1l0.1,0.1L122.6,46.8z
		 M130.3,46.8c0,0-0.1,0-0.1-0.2c0-0.1,0-0.1,0.1-0.1l0.1,0.1L130.3,46.8z M144,46.9c0.1,0,0.2-0.1,0.2-0.2s0-0.2-0.1-0.2l-0.2,0.2
		L144,46.9C144,46.8,144,46.9,144,46.9z M144.7,47.7v-0.5c0-0.2-0.1-0.5-0.2-0.5s-0.1,0.2-0.1,0.4c0,0.2,0,0.4,0.1,0.5
		C144.5,47.6,144.7,47.7,144.7,47.7z M127,47.2V47H127c0,0-0.1,0-0.1,0.1C126.9,47.2,127,47.2,127,47.2z M165.8,48.4v-1l-0.4,0.4
		l0.1-0.4c0-0.1,0.2-0.2,0.3-0.2s0.2,0.2,0.2,0.6C166.1,48,166,48.2,165.8,48.4L165.8,48.4L165.8,48.4z M143.4,48l0.1-0.2l-0.1-0.2
		c0-0.1,0-0.1-0.1-0.1v0.2C143.3,48,143.4,48,143.4,48z M127.3,48.2c0-0.1,0-0.2-0.1-0.3v-0.1l-0.1,0.2
		C127.1,48.1,127.2,48.2,127.3,48.2z M129.8,48.7v-0.2c0.1-0.2,0.1-0.4,0.1-0.5h0.1l0.2,0.1l0.1,0.2l-0.2,0.3
		C129.9,48.6,129.9,48.7,129.8,48.7z M144.8,48.8v-0.6l-0.1-0.1v0.3C144.7,48.6,144.8,48.8,144.8,48.8z M144.3,49.3
		c0,0,0.1-0.2,0.1-0.6c0-0.3,0-0.6-0.1-0.6s-0.1,0.3-0.1,0.6C144.2,49,144.2,49.3,144.3,49.3z M164.2,48.8l0.1-0.2l-0.2-0.1
		l-0.1,0.1C164.1,48.8,164.1,48.8,164.2,48.8z M128.1,49.3c0.1,0,0.2-0.1,0.2-0.2v-0.1c0-0.2-0.1-0.3-0.2-0.3l-0.2,0.2
		C127.9,49.2,128,49.3,128.1,49.3z M143.6,49.2l0.1-0.2l-0.2-0.1V49C143.6,49.2,143.6,49.2,143.6,49.2z M164.6,49.2
		c0,0-0.1,0-0.1-0.2v-0.1l0.2,0.1L164.6,49.2z M142.4,49.6c0.1,0,0.2,0,0.2-0.1l-0.2-0.1V49.6C142.4,49.6,142.4,49.6,142.4,49.6z
		 M143.7,49.8v-0.2h-0.1c0,0-0.1,0-0.1,0.1C143.6,49.8,143.6,49.8,143.7,49.8z M126.9,50.1c0,0,0.1-0.1,0.1-0.2v-0.1
		c0-0.1,0-0.2-0.1-0.2s-0.1,0.2-0.1,0.2C126.8,50,126.8,50.1,126.9,50.1z M128.3,50.1l0.1-0.2l-0.2-0.1V50
		C128.3,50.1,128.3,50.1,128.3,50.1z M163.8,50.1l0.1-0.2l-0.2-0.1V50C163.7,50.1,163.7,50.1,163.8,50.1z M165.5,50.8
		c-0.1,0-0.1-0.1-0.1-0.3c0-0.2,0-0.3,0.1-0.4h0.1v0.3C165.6,50.6,165.5,50.8,165.5,50.8z M145.2,50.4c0,0-0.1,0-0.1-0.2
		c0-0.1,0-0.1,0.1-0.1l0.1,0.1L145.2,50.4z M144.5,51.1c0.1,0,0.1-0.2,0.1-0.5c0-0.3-0.1-0.4-0.1-0.4c-0.1,0-0.2,0.2-0.2,0.5
		C144.4,50.9,144.4,51.1,144.5,51.1z M127.9,50.7l0.1-0.2l-0.1-0.2h-0.2c-0.1,0.1-0.1,0.2-0.1,0.2L127.9,50.7
		C127.9,50.7,127.9,50.7,127.9,50.7z M127.1,51.2c0.1,0,0.1-0.1,0.1-0.2v-0.2c0-0.1-0.1-0.2-0.2-0.2s-0.1,0.1-0.1,0.2v0.2
		C126.9,51.1,127,51.2,127.1,51.2L127.1,51.2z M165.1,50.9c-0.1,0-0.2,0-0.2-0.2c0-0.1,0-0.1,0.1-0.1
		C165.1,50.8,165.1,50.8,165.1,50.9z M145.3,51.1c-0.1,0-0.1-0.1-0.2-0.2l0.1-0.2l0.1,0.1V51.1z M166.1,51.1c-0.1,0-0.2-0.1-0.2-0.2
		l0.2-0.2h0.1c0.1,0,0.1,0.1,0.1,0.2C166.3,51,166.3,51.1,166.1,51.1z M164,51.6l0.2-0.1l0.1-0.2v-0.2c-0.1-0.2-0.2-0.2-0.2-0.2
		s-0.2,0.1-0.2,0.2v0.2C163.9,51.5,163.9,51.6,164,51.6z M128.1,51.6c0.1,0,0.2-0.4,0.2-0.6c0,0-0.1,0-0.1,0.1L128.1,51.6
		C128,51.6,128.1,51.6,128.1,51.6z M163.5,51.4v-0.3l-0.1-0.1v0.2C163.5,51.3,163.5,51.4,163.5,51.4z M144.1,52.8L144.1,52.8
		l0.1-0.8c-0.1-0.4-0.2-0.6-0.2-0.6c-0.1,0.1-0.1,0.2-0.1,0.6C143.9,52.7,144,52.8,144.1,52.8z M166.1,52.7c-0.2,0-0.3-0.1-0.3-0.2
		v-0.1c0-0.1,0.1-0.2,0.2-0.2c0.2,0,0.2-0.2,0.2-0.3s0.1-0.3,0.2-0.3s0.1,0.1,0.1,0.2c0,0.2-0.1,0.6-0.2,0.8L166.1,52.7z
		 M145.5,52.1L145.5,52.1l-0.2-0.2c0-0.2,0.1-0.2,0.1-0.2v0.1C145.5,51.8,145.5,52,145.5,52.1z M145,52.3L145,52.3l-0.1-0.5
		C145,52,145,52.1,145,52.3z M164.4,52.2c0-0.1,0-0.2-0.1-0.2h-0.1V52C164.3,52.2,164.3,52.2,164.4,52.2z M163.9,52.4v-0.2h-0.1
		l-0.1,0.1C163.8,52.4,163.9,52.4,163.9,52.4z M126.6,52.8l0.2-0.2v-0.1c0-0.1,0-0.1-0.1-0.1c-0.1,0-0.2,0.1-0.2,0.2
		S126.5,52.8,126.6,52.8z M128.6,52.8c0.1,0,0.2-0.1,0.2-0.2l-0.1-0.2c-0.1,0-0.1,0.1-0.2,0.2L128.6,52.8
		C128.5,52.8,128.6,52.8,128.6,52.8z M145.7,53.5L145.7,53.5l-0.2-0.2c-0.1-0.2-0.2-0.4-0.2-0.6v-0.2l0.2,0.3
		C145.6,52.8,145.7,53.5,145.7,53.5z M164,53c0.1,0,0.2-0.1,0.2-0.2c0-0.1,0-0.2-0.1-0.2h-0.1c-0.2,0.1-0.2,0.2-0.2,0.2
		S163.9,53,164,53z M127.9,53.2c0-0.1,0-0.2-0.1-0.2h-0.1V53C127.8,53.2,127.9,53.2,127.9,53.2z M127.3,54.1l0.2-0.2l-0.1-0.1
		c-0.1,0-0.1,0.1-0.2,0.2L127.3,54.1C127.2,54,127.3,54.1,127.3,54.1z M127.2,54.8l0.5-0.2c0-0.1-0.1-0.1-0.2-0.1
		c-0.2,0-0.3,0.1-0.4,0.2L127.2,54.8C127.1,54.7,127.2,54.8,127.2,54.8z M145.8,55.3c0,0-0.1-0.2-0.1-0.4v-0.3c0,0,0.1,0,0.1,0.1
		V55.3z M126.2,55.2l0.2-0.2c0.1-0.1,0.1-0.2,0.1-0.3v-0.1c0,0-0.1,0-0.1,0.1L126.2,55.2C126.2,55.2,126.2,55.2,126.2,55.2z
		 M164.1,55.7c-0.1,0-0.1-0.1-0.1-0.2c0-0.2,0.1-0.3,0.2-0.4l0.2,0.1L164.1,55.7z M127.2,55.7l0.2-0.1l0.1-0.2l-0.2-0.2
		c0-0.1-0.1-0.1-0.1-0.1h-0.1v0.2C127.2,55.6,127.2,55.7,127.2,55.7z M163.3,55.5c0.2,0,0.2,0,0.2-0.1s-0.2-0.2-0.2-0.2
		c-0.2,0-0.2,0.1-0.2,0.2S163.1,55.5,163.3,55.5z M164.6,55.7c0,0-0.1,0-0.1-0.2v-0.1l0.2,0.1L164.6,55.7z M126.3,55.8
		c0.1,0,0.2-0.1,0.2-0.2c0,0,0-0.1-0.1-0.1h-0.2l-0.1,0.2v0.1C126.2,55.8,126.3,55.8,126.3,55.8z M126.2,56.5l0.1-0.2l-0.2-0.1v0.1
		L126.2,56.5z M127.4,58.3l0.2-0.1l0.2-0.6c0-0.2,0-0.5-0.1-0.5s-0.2-0.2-0.2-0.3s-0.1-0.4-0.2-0.4c0-0.1-0.1-0.1-0.1-0.1l-0.1,0.2
		l0.2,0.6c0,0.1,0,0.1-0.1,0.1H127c-0.2,0-0.3,0.2-0.3,0.3s0.1,0.2,0.2,0.3L127,58c0.1,0,0.1-0.1,0.2-0.2l0.2-0.2l-0.1,0.3
		C127.2,58.1,127.3,58.3,127.4,58.3L127.4,58.3z M144.8,57.3c0.1,0,0.1-0.1,0.1-0.2c0-0.1,0-0.2-0.1-0.2l-0.1,0.3
		C144.7,57.2,144.7,57.3,144.8,57.3z M145.8,57.7c0,0-0.1-0.2-0.1-0.5v-0.3c0,0,0.1,0,0.1,0.1C145.8,57,145.8,57.7,145.8,57.7z
		 M163,57.8c0.1,0,0.2-0.1,0.2-0.3c-0.1-0.2-0.2-0.3-0.2-0.3h-0.2c-0.1,0-0.1,0.1-0.1,0.2c0,0.2,0,0.3,0.2,0.4
		C162.8,57.7,163,57.8,163,57.8z M125.9,58.3c0.2,0,0.3-0.2,0.4-0.4l0.1-0.2l-0.1-0.2C126.2,57.4,125.8,58,125.9,58.3
		C125.8,58.2,125.9,58.3,125.9,58.3z M144.8,58.1c0.1,0,0.2,0,0.2-0.1l-0.2-0.2c-0.1,0-0.1,0-0.1,0.1
		C144.6,58,144.7,58.1,144.8,58.1z M162,61c0.1,0,0.2-0.1,0.2-0.2v-0.2l0.1-0.2l0.2,0.2v-0.2c0-0.2,0-0.2,0.1-0.3
		c0.2-0.3,0.3-1.4,0.3-1.8v-0.1h-0.1c-0.2,0-0.6,0.6-0.6,1l-0.1,0.5c-0.1,0.1-0.1,0.3-0.1,0.5c0,0.2-0.1,0.4-0.2,0.5l-0.2,0.2
		C161.8,60.9,161.8,61,162,61L162,61z M145,58.6L145,58.6l0.1-0.2H145l-0.1,0.1L145,58.6z M144.1,59.2c0.2,0,0.2-0.1,0.2-0.2
		l-0.1-0.1h-0.2c-0.1,0.1-0.2,0.1-0.2,0.2v0.1L144.1,59.2z M145.4,60v-0.6l-0.2-0.5l-0.1,0.2C145.1,59.4,145.2,60,145.4,60z
		 M125.4,59.8l0.2-0.1c0.2-0.1,0.3-0.2,0.3-0.2s-0.1-0.2-0.2-0.2s-0.2,0.2-0.3,0.2C125.4,59.6,125.4,59.8,125.4,59.8z M144.4,60
		c0.1,0,0.2-0.1,0.2-0.2c-0.1-0.2-0.3-0.4-0.5-0.4H144v0.1h0.1c0.1,0,0.2,0.1,0.2,0.2C144.3,60,144.4,60,144.4,60L144.4,60z
		 M144.4,61.2c0.1,0,0.1-0.1,0.1-0.2c0-0.1,0.2-0.2,0.3-0.2c0.1,0,0.1,0,0.1-0.1l-0.2-0.1l-0.3-0.1c-0.2,0-0.3,0.1-0.3,0.2l0.2,0.3
		C144.2,61.2,144.4,61.2,144.4,61.2z M144.8,61.6C144.9,61.6,144.9,61.5,144.8,61.6l0.2-0.2l-0.1-0.1l-0.2-0.1l-0.1,0.1
		C144.7,61.2,144.8,61.6,144.8,61.6z M161.4,62.9l0.2-0.2l0.1-0.5c0-0.2,0-0.2,0.1-0.2s0.2-0.1,0.2-0.2s0.1-0.2,0.2-0.2
		s0.2-0.1,0.2-0.2s-0.2-0.2-0.3-0.2c-0.2,0-0.4,0.4-0.5,1.3L161.4,62.9L161.4,62.9L161.4,62.9z M146.8,61.5v-0.2l0.2,0.1L146.8,61.5
		z M146.2,62l0.2-0.2l0.1-0.2l-0.1-0.1c0-0.1-0.1-0.1-0.1-0.1c-0.2,0-0.2,0.2-0.2,0.4V62L146.2,62z M128.3,62.1h-0.2V62
		c0-0.1,0.1-0.1,0.1-0.1L128.3,62.1L128.3,62.1z M156.3,63.1L156.3,63.1c0-0.2,0.1-0.4,0.2-0.6l0.2-0.2l-0.1,0.3
		C156.5,62.9,156.4,63.1,156.3,63.1z M146.8,62.8c-0.1,0-0.1-0.1-0.1-0.2c0-0.1,0-0.2,0.1-0.2h0.1c0.1,0.1,0.1,0.2,0.1,0.2
		L146.8,62.8z M126.3,63.9l0.4-0.6c0-0.1,0-0.1-0.1-0.1c-0.1-0.1-0.2-0.2-0.2-0.4c0-0.1,0-0.2-0.1-0.2l-0.1,0.2l-0.1,0.5v0.2
		C126.2,63.7,126.2,63.9,126.3,63.9z M162.6,63.6C162.5,63.6,162.5,63.5,162.6,63.6v-0.2c0-0.2,0.1-0.2,0.2-0.2s0.2,0.1,0.2,0.2v0.1
		c0,0.1-0.1,0.1-0.2,0.2L162.6,63.6z M126.4,63.4l-0.1-0.2l0.1-0.2c0,0.1,0,0.1,0.1,0.1L126.4,63.4
		C126.5,63.3,126.4,63.4,126.4,63.4z M160.8,64.9c0.1-0.1,0.1-0.2,0.1-0.3s0.1-0.2,0.2-0.2h0.1l0.4-0.2l0.1-0.2l-0.1-0.1
		c-0.1,0-0.2-0.1-0.2-0.2l0.1-0.3c0-0.2-0.1-0.3-0.2-0.3c-0.1,0-0.2,0.1-0.3,0.2c-0.1,0.2-0.2,0.8-0.2,1.1
		C160.7,64.8,160.7,64.9,160.8,64.9L160.8,64.9L160.8,64.9z M127.8,64.8v-0.2c-0.1-0.2-0.2-0.3-0.2-0.3c-0.2-0.1-0.2-0.2-0.2-0.2
		c0-0.1,0-0.1,0.1-0.1l0.3,0.2c0.1,0.1,0.2,0.2,0.2,0.2C127.9,64.5,127.8,64.8,127.8,64.8z M125,65.6c0.1,0,0.2-0.1,0.2-0.2l0.1-0.3
		h-0.1l-0.2,0.1c-0.2,0.2-0.2,0.2-0.2,0.4C124.9,65.6,125,65.6,125,65.6z M162.1,65.3L162.1,65.3c-0.2,0-0.2,0-0.2-0.1l0.2-0.1
		C162.1,65.2,162.1,65.2,162.1,65.3L162.1,65.3z M126.6,65.5L126.6,65.5c-0.1-0.1-0.1-0.2-0.2-0.2c-0.1,0-0.1,0-0.1,0.1v0.1
		C126.4,65.5,126.6,65.5,126.6,65.5z M160.5,66c0.1,0,0.2-0.2,0.2-0.3l-0.1-0.3c-0.1,0-0.2,0.1-0.2,0.2l-0.1,0.2v0.1
		C160.3,66,160.4,66,160.5,66z M162.5,66v-0.2c0.1-0.2,0.1-0.2,0.2-0.2h0.1l-0.1,0.3L162.5,66z M162.1,66.9l-0.1-0.2
		c0-0.1,0-0.2,0.1-0.2l0.1,0.2L162.1,66.9z M127.2,67.7l0.1-0.2l-0.1-0.2c-0.1,0-0.1,0.1-0.1,0.2L127.2,67.7z M159.3,68
		c0.2,0,0.3-0.1,0.4-0.2c0-0.1-0.1-0.2-0.2-0.2c-0.1-0.1-0.2-0.1-0.2-0.1l-0.2,0.2l0.1,0.2L159.3,68L159.3,68z M149.1,69.6l-0.1-0.2
		c0-0.1,0.1-0.2,0.2-0.2s0.1,0,0.1,0.1v0.1C149.2,69.6,149.2,69.6,149.1,69.6z M159.7,71.7L159.7,71.7l0.1-0.5l0.1-0.2l0.1,0.2
		C159.9,71.4,159.8,71.6,159.7,71.7L159.7,71.7z M127.4,72.2c0.1,0,0.2-0.1,0.2-0.2l0.1-0.1l-0.2-0.1c-0.1,0-0.2,0.1-0.2,0.2
		L127.4,72.2z M174.6,32.8c-1,0-1.4-0.3-2.8-1.1c-1-0.6-1.2-0.7-1.2-1c0.6-2.1-0.2-1.4,0.9-3.3h-0.2l-0.1-0.2c0-0.3,0.2-0.6,0.3-1
		l0.5-1.2V25c0.3,0,0.3-0.8,0.6-1.4c0-0.3,0.1-1,0.6-1.4c0.2-0.2,0.2-0.4,0.2-0.5c0.1-0.5,0.3-0.6,0.3-0.8l0.7-1.4
		c0-0.2,1-1.2,1-1.7l-0.1-0.1c0.3,0,1.2-1.4,1.4-1.4c0,0.2-0.2,0.2-0.2,0.6c0,0.6-0.9,1-0.9,1.2c0.2,0.2,0,0.1,0.2,0.2
		c0.2,0,0.9-1.2,0.9-1.2V17c0.3,0,0-0.3,0.3-0.3l0.7-0.5l0.1,0.1l-0.1,0.6c0.3-0.5,0.6-0.6,0.9-0.6c0.2,0,0.2,0.1,0.2,0.2v0.3
		c0.1,0,0.3-0.2,0.9-0.5l-0.6,1.2c0.1,0,0.2-0.2,0.3-0.4c0,0,0.2,0.3,0.3,0.3c0.2-0.3,0.2-0.5,0.3-0.5c0.2,0.2,0.3,0.2,0.3,0.6
		c0,0.2,0,0.3,0.1,0.3l0.3-0.2c0,0.2-0.3,0.5-0.8,1.5v0.1c0.2,0,0.5-0.4,1-1.1v0.2c0,0.2-2,3.6-2,3.9c0,0.2-0.2,0.3-0.3,0.8l0.1,0.3
		c0.1,0,0.1-0.1,0.1-0.3c1-2,1.3-2.6,1.6-2.6l0.1,0.1c-0.9,2-2.2,4.3-2.2,4.6v0.1c-0.2,0.9-0.5,1.3-0.5,1.6c0,0.6-0.6,1.3-0.6,1.5
		c0,0.1,0.1,0.2,0.2,0.2l-0.4,0.9l0.1,0.2c0,0.4-0.3,1.2-0.5,1.2l0.1,0.4l-0.2,0.2c0.2,0.1,0.3,0.2,0.3,0.4c-0.3,0.7-1,0.3-1,0.6
		v0.1l-0.2,0.2l-0.2-0.1L174.6,32.8L174.6,32.8z M175.6,18.7c0.1,0,0.2-0.1,0.2-0.2h-0.2l-0.2,0.1L175.6,18.7L175.6,18.7z
		 M173.4,22.7c0.5-0.2,0.9-1.8,1.8-3.3c0.2-0.2,0.2-0.5,0.2-0.6l-0.1-0.1c-0.4,0-0.2,0.6-0.5,0.6c-0.2,0-0.2,0.2-0.2,0.2v0.1
		c0,0.2-0.4,0.8-0.7,0.8l-0.1,0.1l0.2,0.6l-0.2,0.2c-0.2,0-0.5,1.1-0.6,1.1c-0.1,0-0.2,0.1-0.2,0.2S173.2,22.7,173.4,22.7
		L173.4,22.7L173.4,22.7z M173.7,22v-0.2l0.2-0.2l0.1,0.1C173.8,21.9,173.8,22,173.7,22z M179.8,19.8l0.2-0.2l-0.1-0.2
		C179.8,19.5,179.7,19.5,179.8,19.8C179.7,19.8,179.7,19.8,179.8,19.8z M172.6,25.1c0.2,0,0.5-0.6,0.7-2.1c-0.4,0.2-0.4,1-0.7,1.2
		c-0.1,0-0.1,0.1-0.1,0.2l0.1,0.2c-0.1,0.1-0.2,0.2-0.2,0.4L172.6,25.1z M175,68.4l-0.2-0.1c-0.1,0-0.2,0-0.2-0.2l0.1-0.1l-0.2-0.1
		l-0.2,0.3l-0.2-0.1l-0.1,0.2c-0.2,0-1.1-0.6-1.4-0.6h-0.1c-0.4,0-0.3-0.2-1-0.3c0-0.2-1-0.5-1-0.7s-0.6-0.4-0.6-0.7
		c0.2-0.5,0.3-0.5,0.3-1.1c-0.1-0.9-0.2-1.4-0.2-2c0-0.5,0.1-0.8,0.2-1c0-0.3-0.1-0.4-0.2-0.7c0-0.1,0.2-0.2,0.3-0.2
		c-0.2,0-0.3,0-0.3-0.8l0.1-0.5l-0.1-2.4l0.2-1v-0.3c0-0.2,0.2-0.4,0.2-0.7l-0.2-1c0-0.2,0.1-0.3,0.2-0.3s0.1,0,0.1,0.1l-0.2,0.2
		c0.2-0.1,0.3-0.2,0.3-0.2c0-0.2-0.2-0.1-0.2-0.3c0-0.2,0.5-0.4,0.5-0.6s-0.4-0.3-0.4-0.7c0.1-0.4,0.2-0.6,0.2-1
		c0-0.2,0-0.5,0.2-0.9l-0.2-0.2c0.2-0.2-0.1-0.7,0.3-1.6h-0.1l0.1-0.4v-1c0.1-0.5,0-0.2,0.2-0.7c-0.1-0.1-0.2-0.2-0.2-0.7
		c0-0.5,0.2-0.8,0.2-1.4l0.2-2.4c0-1.7-0.2-2.8-0.4-3.7c0-0.2,0.1-0.2,0.2-0.4l-0.1-0.1c0.3-0.6,0.6-0.4,2.1-0.6
		c0.4,0,0.2,0.2,0.5,0.2l1.8,0.2c0.6,0,1,0.6,1.3,0.6h0.1l0.1,0.2v0.3c0.3,1.2,0.6,1.4,0.6,2.4v0.6c0,1.4,0.2,1.4,0.4,1.4l-0.2,0.3
		l0.1,0.4l-0.2-0.1l-0.1,0.1c0,2.6-0.2,2.5-0.2,3.5l0.1,0.1c-0.2,0-0.3,0.3-0.3,1l0.1,0.3c0,0.2-0.1,0.2-0.2,0.2l0.1,0.3l-0.2,1.6
		l-0.2,0.9c0,0.9-0.3,3.2-0.3,4.7l0.1,0.7c0.2-1,0.1-1.8,0.2-1.8h0.2l-0.2,0.5c0,1.1,0.1,0.7,0.1,1.1c-0.2,0.3-0.1,1.1-0.3,1.1
		l-0.1-0.1c0-0.2,0.2-0.3,0.2-0.5l-0.2-0.1c-0.1,0-0.2,0.1-0.2,0.2c0.1,0.2,0.1,0.5,0.1,0.7v0.4c0.1,0,0.2-0.2,0.3-0.4v0.2
		c0,0.8-0.3,0.3-0.3,0.7s0.1,1.2,0.2,1.2l0.1-0.2l-0.1-0.2v-0.5l0.1-0.2c0.2,0.2,0.2,0.2,0.2,0.6c-0.1,0.2-0.1,0.7-0.1,1.2l0.1,0.6
		l-0.1,0.6l-0.2-0.2c-0.1,0-0.1,0.3-0.2,1l0.1,0.5l0.2-0.2l-0.1-0.3c0-0.2,0.1-0.4,0.2-0.4c0.4,0,0.3,4,0.6,4.2
		c0.1,0,0.2,0.2,0.2,0.3c0,0.4-0.6,0.8-1.1,0.8c-0.2,0-0.3,0-0.3,0.2V68c0,0.1-0.1,0.1-0.2,0.2L175,68.4L175,68.4z M177.5,42.3
		l-0.1-0.4l0.1-0.4c0.1,0,0.2,0,0.2,0.1l-0.2,0.2l0.1,0.2C177.7,42.2,177.6,42.3,177.5,42.3z M177.1,49.8l-0.2-0.1l0.2-0.2
		C177.2,49.6,177.2,49.8,177.1,49.8z M176.7,52.9v-0.5l0.2-0.2l0.1,0.1C177,52.3,176.7,52.9,176.7,52.9z M176.7,53.5l-0.2-0.2
		l0.1-0.3c0.2,0,0.3,0.1,0.3,0.2C177,53.4,176.9,53.5,176.7,53.5z M176.6,54.9l-0.1-0.2c0-0.1,0.1-0.4,0.2-0.4l0.1,0.1
		C176.8,54.6,176.7,54.8,176.6,54.9z M176.4,61.5v-0.2l-0.1-0.2c0,0-0.1,0.1-0.1,0.3L176.4,61.5z M176.3,64.1L176.3,64.1l0.2-0.4
		c0-0.2,0-0.2-0.1-0.2h-0.1V64.1z M203.9,71.5l-0.6-0.1l-1.4-0.1c-1.2-0.1-2-0.4-2-0.7c0-0.4-3.1-6.4-3.6-7c-0.2-0.2-0.6-1-1-1.7
		c-1-1.8-2.1-3.8-2.3-3.8c-0.1,0-0.1,0-0.1,0.1l0.1,0.2c-0.2,0.2-0.3,0.5-0.3,0.7c0,0.5,0,0.7-0.2,0.7c0-0.2-0.2-0.3-0.2-0.4
		l0.1-0.2c0-0.1-0.1-0.2-0.2-0.2s-0.2,0.2-0.4,0.3c-0.2,0.2,0.2-0.2-0.6,0.6c-0.2,0.2-0.6,0.4-0.7,0.4c-0.2,0-0.4,0.1-0.4,0.2
		s0,0.4-0.1,0.6v0.2l0.1,0.1c0.1,0,0.4-0.2,0.8-0.6c0.3-0.3,0.6-0.5,0.6-0.5l0.1,0.1l-0.2,0.5l0.1,0.2c0,0.2-0.2,0.4-0.4,0.6
		l-0.3,0.2l0.2-0.6l-1,1l0.3-0.2l0.1,0.1c0,0.1-0.2,0.3-0.4,0.5c-0.2,0.2-0.4,0.3-0.5,0.3h-0.2l0.1,0.1c0,0.4-1.4,1.8-1.8,1.8
		l-0.2-0.1c-0.2,0.2-0.2,0-0.2,0.2c0.2,0,0.1,0,0.3-0.1c0,0.1-0.4,0.6-1.2,1.4c-0.8,1-1.4,1.4-1.6,1.4c-0.1,0-0.2-0.1-0.2-0.2
		l-0.2-0.1l-0.9,0.2c-0.2,0-0.2-0.1-0.4-0.2s-1-0.6-1.8-1c-0.7-0.4-1.4-0.8-1.4-0.9c0-0.2-0.1-0.2-0.2-0.2c-0.2,0-0.9-1-0.9-1.3
		c0-0.2,0.4-0.7,1-1.1c0.5-0.5,0.9-0.9,0.9-1.1l-0.1-0.2l0.1,0.1c0.2,0,0.6-0.2,1-0.6s0.9-0.7,1-0.7s0.2-0.1,0.2-0.3v-0.2l0.2,0.2
		c0.3,0,1.2-0.8,4.2-3.8c1.2-1.2,2.2-2.1,2.3-2.1c0.2,0,0.3-0.2,0.4-0.6l0.1-0.4c0-0.6-0.4-1.6-0.8-1.6c-0.1,0-0.2-0.1-0.2-0.3
		c-0.1-0.2-0.3-0.7-0.7-1.3c-0.2-0.4-0.8-1.3-1-1.9l-1.9-3.2c-0.2-0.2-0.6-0.9-1-1.3c-0.4-0.5-0.6-1-0.6-1.1c0-0.6,0.2-1,0.4-1
		c0.1,0,0.6-0.2,0.8-0.3c0.5-0.3,1-0.4,1.6-0.4c1.8,0,3.9,1.2,5.1,3.1c0.6,1,1.1,1.8,1.4,1.8v-0.1c0,0.4,0.9,2.7,1.4,3.2
		c0.2,0,1-0.7,2-1.7s2.1-2,2.5-2.2s0.8-0.5,0.9-0.6v-0.2c-0.2,0.2-0.3,0.3-0.5,0.3c-0.1,0-0.2,0-0.2-0.1l-0.2-0.2l0.2,0.1
		c0.2,0,2-1.5,3.6-3.1c0.5-0.5,1.1-1,1.7-1.3c0.4-0.2,0.7-0.4,0.7-0.6l-0.1-0.2c0-0.2,0.1-0.2,0.2-0.3c0.2,0,0.3,0.1,0.3,0.1
		l0.1,0.2l0.2-0.3l-0.1-0.1c0-0.1,0.2-0.2,0.6-0.2s0.5-0.1,0.5-0.2l-0.3-0.2c0-0.3,0.9-0.8,1.3-0.8h0.2c0.1,0,0.2-0.2,0.2-0.5
		c0.2-0.2,0.3-0.4,0.5-0.4c0.1,0,0.3-0.2,0.5-0.6c0.2-0.2,0.2-0.2,0.3-0.2l0.4,0.3c0.1,0,0.2-0.1,0.5-0.3c0.2-0.2,0.4-0.4,0.6-0.4
		c0.1,0,0.6-0.2,0.9-0.6c0.3-0.2,0.7-0.4,0.9-0.4s0.2,0,0.2,0.2v0.3c0.1,0.4,0,0.2,0.3,0.5c0,0.1-0.1,0.2-0.2,0.2s-0.3,0.3-0.4,0.6
		l-0.1,0.1c0,0.1,0.1,0.2,0.2,0.2c0.2,0,0.6-0.2,1-0.6c0.2-0.2,0.5-0.4,0.6-0.4c0.1,0,0.2,0.1,0.2,0.2c0,0.2-0.2,0.2-0.4,0.2
		s-0.2,0-0.2,0.1v0.2c0,0.3-0.2,0.6-0.7,1.1c-0.3,0.3-0.6,0.6-0.6,0.7c0,0.2-0.7,0.9-0.9,0.9l-0.1-0.1l0.1-0.2
		c0-0.1-0.1-0.1-0.1-0.1c-0.1,0-0.2,0.1-0.2,0.2s-0.1,0.3-0.2,0.3c-0.2,0-0.2,0.1-0.2,0.3c0,0.2-0.1,0.2-0.2,0.2s-0.4,0.2-0.5,0.3
		s-0.2,0.3-0.3,0.3s-0.2,0-0.2,0.1l0.1,0.2c0,0.2-0.1,0.3-0.3,0.4c-0.3,0.1-0.5,0.4-0.5,0.6s-0.2,0.2-0.4,0.2
		c-0.3,0-0.6,0.1-0.6,0.2v0.1l0.3-0.2c0,0.2-0.2,0.4-0.5,0.4c-0.2,0-0.2,0.2-0.2,0.3s-0.2,0.3-0.5,0.4c-0.3,0.2-0.6,0.6-0.6,0.9
		c0,0.1,0.1,0.2,0.2,0.2s0.2,0.1,0.2,0.2c0,0.2-0.1,0.3-0.2,0.6l-0.3,0.2l-0.2-0.1c0-0.2,0.1-0.2,0.1-0.2c0.1,0,0.3-0.1,0.3-0.2
		c0-0.2-0.1-0.2-0.2-0.2c-0.2,0-0.6,0.2-1.1,0.7c-0.4,0.4-0.7,0.7-0.7,0.8v0.1c0,0.2-0.1,0.2-0.2,0.3c-0.1,0-0.2,0.1-0.2,0.2
		l0.1,0.2c0,0.1-0.1,0.2-0.2,0.2c-0.2,0-0.2,0.2-0.2,0.2c0,0.4-0.6,1.1-0.9,1.1c-0.2,0-0.3,0.2-0.3,0.4c-0.2,0.3-0.6,0.6-0.9,0.6
		l-0.3-0.1l-0.2,0.1c0,0.2,0.3,0,0.3,0.6l-0.2,0.2l-0.2-0.1l-0.2,0.2v0.2l0.2-0.2c0.2,0,0.2,0.2,0.2,0.2c0,0.2-0.1,0.2-0.2,0.3
		c-0.2,0.2-0.3,0.4-0.3,0.6s-0.1,0.2-0.2,0.2l-0.8-0.4c-0.1,0-0.2,0.1-0.2,0.2c0,0.2,0.2,0.2,0.3,0.2c0.1,0,0.2,0.1,0.2,0.2
		l-0.2,0.2l-0.2-0.1c-0.2,0.4-0.6,0.8-0.6,0.8c-0.4,0-1,0.5-1,1c0,0.6,0.4,1.8,0.8,1.8c0.1,0,0.1,0.1,0.1,0.2s0.1,0.3,0.2,0.3
		s0.4,0.3,0.6,0.7c0.2,0.5,0.5,1,0.8,1.3c1.4,2.1,2.1,3.5,2.3,3.5c0.1,0,0.2,0,0.2,0.1l0.1,0.1h-0.2l-0.1,0.1c0,0.2,0.2,0.5,0.3,0.9
		c0.4,0.4,0.6,1,0.8,1.2l0.3,0.6c0.2,0.2,0.4,0.5,0.5,0.8c0,0.2,0.2,0.5,0.3,0.6c0.3,0.2,1.5,2.6,1.6,2.9c0,0.4,0.5,1.6,0.6,1.6
		s0.2,0.1,0.2,0.2c0,0.3-0.2,0.8-0.5,1C206.1,71.3,204.8,71.5,203.9,71.5L203.9,71.5L203.9,71.5z M242.7,75.4
		c-0.5,0-0.9-0.1-1.6-0.2c-1.1-0.2-3.5-1.3-3.9-1.6c-0.2-0.2-0.4-0.2-0.5-0.2c-0.2,0-0.5-0.2-0.8-0.5c-0.3-0.3-1-0.9-1.6-1.3
		c-1.2-0.9-2.9-2.9-3.4-4.2c-0.4-1-0.9-3.5-0.9-5.5c0-0.8,0-1.5,0.1-1.6v-0.9c0-0.4,0-0.8,0.1-0.9l0.1-0.1l0.1,0.1l0.2-0.1
		c0.2-0.1,0.2-0.2,0.2-0.3s-0.2-0.2-0.3-0.2s-0.2-0.1-0.2-0.2v-0.3l0.3,0.2l0.1-0.1c0-0.2,0-0.2-0.2-0.2h-0.1l-0.1-0.2
		c0.1-0.2,0.1-0.8,0.2-1.4l0.1-1.5c0.1-0.2,0.1-0.4,0.2-0.5c0.1,0,0.1-0.2,0.1-0.4v-0.2c0-0.4,0.1-0.9,0.2-0.9
		c0.1,0,0.1-0.2,0.1-0.3v-0.3h0.1c0.1,0,0.2-0.1,0.2-0.2c0-0.1,0-0.2-0.1-0.2h-0.2c0,0-0.1,0-0.1-0.1l0.1-0.3
		c0.1-0.2,0.2-0.3,0.3-0.3h0.1l-0.1-0.1c-0.1-0.1-0.1-0.3-0.1-0.6c0-0.8,0.3-2.2,0.6-2.2c0.1,0,0.2-0.1,0.2-0.2s0-0.1-0.1-0.1h-0.2
		l-0.1-0.1c0-0.2,0.2-2,0.4-2.3c0.1-0.1,0.1-0.4,0.1-0.5v-0.2c0-0.2,0.1-0.4,0.2-0.6c0.2-0.2,0.2-0.4,0.2-0.5l-0.1-0.2
		c0-0.5,0.3-1.5,0.5-1.5c0.1,0,0.1,0,0.1-0.1v-0.2c0-0.2,0.1-0.3,0.2-0.5l0.2-0.3c0-0.1-0.1-0.2-0.2-0.2c-0.3-0.1-0.3-0.2-0.3-0.4
		c0.1-0.3,0.2-0.5,0.2-0.5V40l0.2-0.2c0.1-0.2,0.2-0.2,0.3-0.2c0.2,0,0.2-0.1,0.2-0.1c0-0.2-0.2-0.2-0.3-0.3
		c-0.2-0.1-0.3-0.1-0.3-0.3l0.2-0.6l0.1-0.6c0-0.1,0.1-0.2,0.2-0.2c0.2-0.2,0.4-0.4,0.4-0.6l-0.1-0.1l-0.1,0.1
		c-0.1,0.2-0.2,0.2-0.3,0.2l-0.1-0.2l0.1-0.2c0.1-0.2,0.2-0.2,0.3-0.2h0.2l-0.2-0.1l-0.2-0.3c0-0.1,0.1-0.1,0.2-0.1l0.2,0.1
		l-0.2-0.6c0-0.6,0.2-1.7,0.4-1.9c0.1-0.1,0.1-0.2,0.1-0.4v-0.1c0-0.2,0.1-0.4,0.2-0.6c0.2-0.2,0.2-0.2,0.2-0.2v0.2l-0.1,0.2h0.1
		l0.2-0.2c0.2-0.2,0.3-0.2,0.4-0.2c0.2,0,0.4-0.6,0.4-0.8v-0.2l-0.1-0.1l-0.1,0.2c-0.1,0.2-0.2,0.2-0.2,0.2s-0.2-0.2-0.2-0.4v-0.2
		c0-0.1,0-0.2-0.1-0.2s-0.1-0.1-0.1-0.2c0-0.2,0.1-0.6,0.2-1.3l0.2-1c0.1-0.3,0.2-0.7,0.3-0.8l0.1-0.2l-0.1-0.2c0-0.2,0-0.6,0.1-0.9
		s0.1-0.5,0.2-0.5l0.3,0.2l-0.2-0.5c0-0.1,0.1-0.2,0.2-0.2c0.2-0.1,0.2-0.2,0.2-0.2l-0.1-0.3c0-0.4,0.2-0.9,0.2-0.9
		c0.2,0,0.2,0,0.2-0.1l-0.1-0.1c-0.1-0.1-0.2-0.1-0.2-0.2l0.3-1.4c0.1-0.4,0.2-0.6,0.3-0.6h0.2c0-0.1-0.1-0.1-0.2-0.2l-0.1-0.1
		l0.1-0.2c0.2,0,0.2-0.2,0.2-0.3v-0.1h0.1c0.1,0,0.2,0,0.2-0.1s-0.1-0.2-0.2-0.2c-0.1-0.1-0.1-0.2-0.1-0.3l0.1-0.5
		c0.5-1.8,0.7-2.6,0.9-2.6h0.3c0.1-0.1,0.1-0.2,0.1-0.3s-0.2-0.2-0.2-0.2l-0.2,0.1c-0.1,0-0.1,0-0.1-0.1l0.1-0.3
		c0.1-0.2,0.2-0.3,0.4-0.3h0.2l-0.2-0.2c-0.2-0.2-0.2-0.2-0.2-0.4c0-0.1,0.1-0.2,0.2-0.2l0.2-0.1l-0.2-0.4l0.5-1.9
		c0.4-1.8,0.8-3.1,0.9-3.2c0.1,0,0.1-0.1,0.1-0.2l0.1-0.8l0.2-0.8V8.1c0-0.5,0.6-2,0.7-2s0.2-0.2,0.2-0.5c0-0.1,0-0.2-0.1-0.2
		l-0.1-0.2l0.2-1c0.3-1.8,0.4-3,0.4-3.4L242,0l1.4,0.1l1.1,0.6c0.3,0.3,0.8,0.6,1.1,0.8c0.2,0.1,0.6,0.3,0.6,0.5
		c0.2,0.2,0.6,0.6,0.9,1.1c0.8,0.9,1.6,2.2,1.6,2.6L248.6,6v0.2c0,0.6-0.5,3.1-1,4.7l-0.6,2.4c-0.2,0.9-0.4,1.4-0.5,1.4
		s-0.1,0.2-0.1,0.3s0,0.4-0.1,0.6c-0.2,0.8-0.6,2.1-0.6,2.7c-0.1,0.5-0.2,0.8-0.2,0.8s-0.2,0.5-0.3,1.1c-0.1,0.6-0.2,1.2-0.4,1.4
		l-0.2,0.3v0.2l-0.3,1.8l-0.3,1.3c-0.2,0.6-0.4,1.4-0.4,1.5c0,0.2-0.1,0.4-0.2,0.4s-0.1,0.1-0.1,0.2l0.1,0.3
		c-0.1,0.1-0.2,0.4-0.2,0.8c-0.1,0.6-0.6,3.2-1,4.2l-0.2,1c0,0.1,0,0.2-0.1,0.2s-0.2,0.3-0.2,0.6c-0.1,0.4-0.2,0.8-0.3,1l-0.2,0.3
		v0.2c0,0.4-0.2,1.4-0.3,1.8c-0.2,0.2-0.5,2.2-0.5,2.7v0.1c0,0.1,0.1,0.1,0.2,0.1c0.1,0,0.2,0.1,0.2,0.2l-0.1,0.2l-0.3-0.2
		c-0.2,0-0.2,0.1-0.2,0.3v0.5c-0.2,0.3-0.3,0.9-0.4,1.5l-1.1,6l-0.1,1.1l0.3-0.1c0.1,0,0.1,0,0.1,0.1c-0.1,0.1-0.1,0.2-0.2,0.2h-0.1
		c-0.2,0-0.4,0.2-0.4,0.6c0,0.2,0.2,0.2,0.2,0.2h0.1c0.1,0,0.1,0.1,0.1,0.2c0,0.1,0,0.2-0.1,0.2l-0.2-0.2c-0.1,0-0.2,0.1-0.2,0.2
		v0.2c0,0.2-0.1,0.3-0.2,0.4s-0.2,0.4-0.2,0.7s-0.1,0.6-0.2,0.6s-0.1,0.1-0.1,0.2s0.1,0.2,0.3,0.2l0.3,0.1h-0.3
		c-0.2,0-0.2,0.1-0.2,0.2v0.1l0.1,0.2h0.2c0,0,0.1,0.1,0.1,0.2s-0.1,0.4-0.2,0.4l-0.1,0.1l0.1-0.4l-0.2,0.2
		c-0.2,0.2-0.3,0.6-0.3,0.7v0.9l-0.1,0.3c0,0.2,0.1,0.3,0.2,0.3s0.1-0.1,0.2-0.2l0.1-0.1v0.2c-0.1,1-0.2,1.8-0.2,1.8
		s-0.1,0.1-0.1,0.2v0.5l-0.3-0.6l-0.1,0.2l-0.1,1l0.1,0.2l0.2-0.1c0.1-0.1,0.2-0.2,0.2-0.2v0.2c-0.1,0.2-0.1,0.3-0.1,0.4
		s-0.1,0.2-0.2,0.2c-0.2,0-0.3,0.3-0.3,0.5l0.1,0.2h0.1v-0.2c0-0.2,0-0.2,0.1-0.2c0.2,0,0.2,0.1,0.2,0.2l-0.1,0.5
		c-0.1,0.4-0.2,1.4-0.2,2.2v0.7c0,0.7,0.1,3.1,0.2,3.8s0.1,0.6,0.7,0.8l0.7,0.1l1.7-0.2l0.2,0.1l0.2,0.1l0.6-0.2
		c0.3-0.2,0.8-0.2,1-0.2s0.2-0.1,0.2-0.1v-0.2c0-0.1,0-0.1,0.1-0.1c0.3-0.1,0.6-0.1,0.8-0.2l0.2-0.2l0.1,0.1c0,0.1,0.1,0.1,0.2,0.1
		c0.3,0,1-0.2,1.8-0.5l1.6-0.6l1-0.6l0.2-0.1l-0.1-0.2c0-0.1,0.1-0.1,0.2-0.1h0.2c0.2,0,0.6-0.1,1-0.2c0.2-0.2,0.4-0.2,0.6-0.2h0.1
		l0.3-0.2c0.2-0.2,0.3-0.2,0.5-0.2h0.2c0.2,0,0.4,0,0.6-0.1l1.5-0.7c0.6-0.3,1.1-0.6,1.1-0.7V64c0-0.1,0.2-0.1,0.3-0.1h0.2
		c0.4,0,0.9-0.2,0.9-0.4v-0.1c0-0.1,0-0.2,0.2-0.2h0.1v0.2l0.2-0.1c0.1-0.1,0.3-0.2,0.4-0.2s0.2-0.1,0.2-0.2V63
		c0-0.1,0.1-0.1,0.2-0.1h0.1c0.3,0,0.9-0.2,1.5-0.6l0.7-0.2l1.7-0.6c0.6-0.2,1-0.4,1.3-0.4c0.1,0,0.2,0,0.2,0.2v0.1
		c0,0.2,0.1,0.2,0.2,0.2c0.2,0,0.3-0.1,0.6-0.2l0.6-0.2c0.1,0,0.2,0,0.2,0.2v0.1c0,0.1-0.1,0.1-0.2,0.1h-0.1c-0.1,0-0.2,0-0.2,0.1
		v0.1c0,0.2-0.5,0.7-0.7,0.7h-0.1c-0.2,0-0.2,0-0.2,0.1l0.1,0.3c0,0.2-0.2,0.4-0.3,0.4h-0.1c-0.1,0-0.4,0.1-0.7,0.3l-0.7,0.5
		c-0.2,0-0.2,0.2-0.2,0.4v0.1c0,0.2-0.2,0.4-0.4,0.4l-0.2-0.1l-0.1-0.1v0.2c0,0.2,0,0.2-0.1,0.2h-0.1l-0.2,0.1
		c0,0.2-0.2,0.2-0.2,0.2s-0.2,0.2-0.2,0.2c-0.1,0.2-0.3,0.3-0.6,0.4l-0.6,0.4v0.2h0.1c0.2,0,0.5,0.1,0.5,0.2v0.1l-0.3,0.1
		c-0.2,0.1-0.5,0.2-0.6,0.3s-0.5,0.3-0.7,0.3h-0.2l0.3-0.4c0-0.1,0-0.1-0.1-0.1l-0.3,0.1c-0.2,0.1-0.4,0.2-0.6,0.2
		c-0.2,0-0.3,0.1-0.3,0.2s-0.1,0.2-0.2,0.2c-0.2,0-0.3,0.1-0.3,0.2l-0.1,0.2l0.2,0.1c0.2,0,0.3-0.1,0.6-0.2c0.2-0.2,0.3-0.2,0.4-0.2
		s0.2,0,0.2,0.1l0.2,0.2l-0.4-0.1v0.1c0,0.1-0.2,0.2-0.5,0.3l-0.3,0.2h0.1c0.2,0,0.2,0.1,0.2,0.1c0,0.1,0,0.2-0.2,0.2
		s-0.2,0-0.2-0.1l-0.2-0.1l-0.2,0.1c-0.2,0-0.2,0.2-0.2,0.2v0.1l-0.1,0.2l-0.2,0.1l0.2,0.2c0,0.1-0.1,0.2-0.3,0.3
		c-0.3,0.2-0.5,0.3-0.5,0.4c0,0.2,0.1,0.2,0.2,0.3l0.2,0.1l0.2-0.2c0.1-0.2,0.2-0.3,0.4-0.3c0.1,0,0.2,0.1,0.3,0.2l0.1,0.2
		c0,0.1-0.2,0.2-0.7,0.3c-0.2,0.1-0.3,0.2-0.3,0.2l0.1,0.2l-0.2,0.1c-0.1,0-0.2,0.1-0.2,0.2l0.1,0.2v0.2l-0.1,0.1l-0.6-0.1l0.2,0.2
		c0,0.1-0.2,0.2-0.3,0.2h-0.2l-0.7,0.1c-0.1,0.1-0.2,0.1-0.2,0.2h0.3l-0.1,0.2l-0.3,0.1l-0.3-0.1c-0.2,0-0.4,0.1-0.8,0.2
		c-0.5,0.2-0.9,0.3-1,0.3h-0.1l0.1,0.1l0.2,0.1c0.2,0,0.3-0.1,0.6-0.2l0.6-0.2h0.1l-0.1,0.1h-0.1l0.2,0.2c0,0.2-0.2,0.2-0.6,0.3
		c-0.3,0.1-0.6,0.2-0.7,0.3c0,0.1-0.2,0.2-0.2,0.2l-0.7,0.2c-1.2,0.6-3.4,1.3-4.4,1.3l-1.4,0.2C243.3,75.4,243,75.4,242.7,75.4
		L242.7,75.4L242.7,75.4z M239.2,17.4l0.3-0.4h-0.2C239.3,17,239.1,17.1,239.2,17.4L239.2,17.4z M238.9,18.3c0.1,0,0.2-0.1,0.2-0.2
		l0.1-0.1l-0.1-0.1h-0.1c-0.1,0-0.1,0.1-0.2,0.2V18.3L238.9,18.3z M238,21.5c0.1,0,0.2-0.1,0.2-0.2c0-0.1,0-0.1-0.1-0.1l-0.2,0.1
		C237.9,21.4,237.9,21.5,238,21.5z M238,22.3L238,22.3l0.1-0.2H238C237.9,22.1,237.9,22.1,238,22.3L238,22.3z M236.9,24.5
		L236.9,24.5l-0.2-0.1C236.7,24.5,236.8,24.5,236.9,24.5C237,24.5,236.9,24.5,236.9,24.5z M235.4,31l0.3-0.2c0-0.1-0.1-0.1-0.2-0.1
		C235.4,30.8,235.3,30.8,235.4,31L235.4,31z M241,32.7l0.2-0.2l-0.1-0.1H241l-0.2,0.2L241,32.7z M241,33.2L241,33.2
		c0-0.2-0.1-0.2-0.2-0.2l-0.1,0.1l0.1,0.1C240.8,33.2,240.9,33.2,241,33.2z M242.3,33.8c0-0.2,0.1-0.4,0.2-0.6l0.2-0.2
		c0,0,0,0.2-0.2,0.6C242.4,33.7,242.4,33.8,242.3,33.8z M240.2,35.2l0.3-0.3c0.1-0.1,0.2-0.2,0.2-0.4v-0.2l-0.1-0.1
		c-0.1,0-0.2,0.1-0.2,0.4C240.2,34.8,240.2,35,240.2,35.2L240.2,35.2z M240.3,36c0.2,0,0.2-0.1,0.2-0.2c-0.1-0.2-0.1-0.3-0.2-0.3
		l-0.2,0.5C240.2,36,240.2,36,240.3,36z M239.4,35.8C239.4,35.8,239.4,35.7,239.4,35.8l-0.1-0.2l-0.1,0.1
		C239.2,35.7,239.2,35.8,239.4,35.8z M234.7,37.3L234.7,37.3l0.1-0.4l-0.2-0.1c-0.1,0-0.2,0.1-0.2,0.2l0.1,0.2
		C234.6,37.2,234.6,37.3,234.7,37.3z M240.1,37.1L240.1,37.1v-0.2c0-0.1-0.1-0.1-0.1-0.1L240.1,37.1C240,37,240.1,37.1,240.1,37.1z
		 M238.8,37.9c0.1,0,0.2,0,0.2-0.2l0.1-0.1H239C239,37.6,238.9,37.6,238.8,37.9L238.8,37.9z M234.2,38.2c0.1-0.1,0.2-0.1,0.2-0.2
		c0-0.1-0.1-0.2-0.2-0.2s-0.2,0.1-0.2,0.2L234.2,38.2z M234.1,39.1l0.1-0.2v-0.1c0-0.1-0.1-0.2-0.2-0.2H234l-0.2,0.2l0.1,0.1
		L234.1,39.1z M239.5,39.2l0.1-0.2l-0.2-0.1v0.1C239.4,39.2,239.5,39.2,239.5,39.2z M239.4,39.9c0.1,0,0.2-0.1,0.2-0.2
		s-0.1-0.2-0.2-0.2s-0.2,0.1-0.2,0.2L239.4,39.9z M239,40.9l0.2-0.1l0.1-0.3h-0.1c0,0-0.1,0.1-0.1,0.2L239,40.9z M232.9,42.3
		l0.3-0.2c0.2-0.2,0.4-0.4,0.4-0.6c0.1-0.2,0.1-0.5,0.2-0.5s0.2-0.1,0.2-0.2h-0.1l-0.6,0.6C233,41.8,232.9,42.1,232.9,42.3
		C232.9,42.3,232.9,42.3,232.9,42.3L232.9,42.3z M240.6,42.2L240.6,42.2l-0.1-0.2h0.1V42.2z M238.9,42.4c0,0,0-0.2-0.1-0.2
		c0-0.1-0.1-0.1-0.1-0.1v0.2L238.9,42.4C238.8,42.4,238.9,42.4,238.9,42.4z M240.4,42.8c0,0-0.1-0.1-0.1-0.2c0-0.1,0-0.2,0.1-0.2
		s0.1,0,0.1,0.1v0.1C240.5,42.8,240.4,42.8,240.4,42.8z M233.2,43.5L233.2,43.5l0.1-0.2c0-0.1,0-0.2-0.1-0.2l-0.1,0.2L233.2,43.5
		L233.2,43.5z M237.6,43.8c0.1,0,0.2-0.1,0.2-0.2l-0.1-0.2l-0.2,0.2C237.5,43.7,237.5,43.8,237.6,43.8z M240,44.9v-0.2l0.1-0.2h0.1
		L240,44.9C240.1,44.8,240,44.9,240,44.9z M233,45.2L233,45.2l-0.2-0.1v0.1H233z M239.8,45.6v-0.2l0.2-0.2l0.1,0.1l-0.1,0.1
		C239.9,45.5,239.8,45.6,239.8,45.6z M238.1,45.9c0.1,0,0.2-0.1,0.2-0.2l-0.1-0.2l-0.2,0.2c-0.1,0.1-0.2,0.2-0.2,0.2H238.1z
		 M237.3,46.1l0.1-0.2c0-0.1-0.1-0.2-0.2-0.2S237,45.9,237,46L237.3,46.1z M237.2,46.9c0-0.1,0-0.2-0.1-0.2v-0.1
		c-0.1,0-0.1,0.1-0.1,0.2L237.2,46.9z M232.5,47.2L232.5,47.2V47c-0.1,0-0.1,0-0.1,0.1L232.5,47.2z M236.2,47.2L236.2,47.2v-0.2
		c0,0,0-0.1-0.1-0.1L236.2,47.2C236.1,47.2,236.2,47.2,236.2,47.2z M239.5,48l-0.1-0.2v-0.2h0.1l0.1,0.2L239.5,48z M232.6,49.2
		L232.6,49.2l-0.2-0.1C232.3,49.2,232.4,49.2,232.6,49.2L232.6,49.2z M239.1,49.8c-0.1,0-0.1-0.1-0.1-0.2l0.2-0.2l0.1,0.2
		C239.2,49.7,239.1,49.8,239.1,49.8z M237.5,49.8c0-0.1,0-0.2-0.1-0.2c-0.1,0-0.1,0.1-0.1,0.2L237.5,49.8z M237.1,51.7
		c0.1,0,0.3-0.7,0.3-1c0-0.1,0-0.3,0.1-0.4v-0.1h-0.1c-0.2,0-0.4,0.8-0.4,1.3L237.1,51.7L237.1,51.7L237.1,51.7z M235.5,51.1
		L235.5,51.1l0.1-0.2c0-0.1-0.1-0.2-0.2-0.2s-0.1,0-0.1,0.1v0.1C235.4,51,235.5,51.1,235.5,51.1z M236.4,51.3L236.4,51.3l-0.1-0.2
		L236.4,51.3L236.4,51.3z M234.2,52L234.2,52c0.1-0.2,0-0.2,0-0.2L234,52C234,52,234,52,234.2,52z M237,53.2L237,53.2v-0.4
		c0-0.2,0-0.2-0.1-0.3l-0.1,0.2C236.8,52.8,236.8,53,237,53.2C236.9,53.1,237,53.2,237,53.2z M238.7,52.8L238.7,52.8l-0.2-0.1v-0.1
		h0.1C238.7,52.6,238.7,52.8,238.7,52.8z M231.1,53.4L231.1,53.4c0.2-0.2,0.2-0.2,0.2-0.2l0.2,0.2c0.1,0,0.2-0.1,0.2-0.2l0.1-0.2
		l-0.1-0.2h-0.2c-0.2,0-0.6,0.2-0.6,0.4v0.1C231,53.3,231.1,53.4,231.1,53.4L231.1,53.4z M236.5,55.4L236.5,55.4
		c0.2-0.1,0.3-0.2,0.3-0.4l-0.1-0.2c-0.1,0-0.1,0.1-0.2,0.2c-0.2,0.1-0.2,0.2-0.2,0.3L236.5,55.4z M238,56.4L238,56.4v-0.8l0.1-0.3
		c0.1,0,0.1,0,0.1,0.1v0.2C238.2,55.9,238.1,56.4,238,56.4z M231.2,56.4v-0.2h-0.1c0,0-0.1,0-0.1,0.1
		C231.1,56.4,231.2,56.4,231.2,56.4z M234.5,57.3l0.2-0.2V57c-0.1,0-0.2,0.1-0.2,0.2V57.3C234.4,57.2,234.5,57.3,234.5,57.3z
		 M231,57.2c0.2,0,0.2-0.1,0.2-0.2H231L231,57.2C231,57.2,231,57.2,231,57.2z M235.5,57.4v-0.2h-0.1c0,0-0.1,0-0.1,0.1
		C235.4,57.3,235.4,57.4,235.5,57.4z M234.6,57.7l0.1-0.2l-0.2-0.1v0.1C234.5,57.7,234.6,57.7,234.6,57.7z M237.6,58.2
		c0.1-0.1,0.1-0.2,0.1-0.5l-0.1-0.3c-0.1,0-0.1,0.1-0.1,0.2l-0.1,0.4C237.5,58.1,237.5,58.2,237.6,58.2
		C237.5,58.2,237.6,58.2,237.6,58.2z M237.1,62.2c0.1,0,0.1-0.1,0.1-0.2V62c0-0.1,0-0.2-0.1-0.2H237c-0.1,0.1-0.1,0.2-0.1,0.2
		S237,62.2,237.1,62.2z M263.3,61.7c0.2,0,0.5-0.2,0.6-0.2c0-0.1,0-0.2-0.1-0.2C263.5,61.3,263.2,61.5,263.3,61.7L263.3,61.7z
		 M264.4,61.9L264.4,61.9L264.4,61.9c0-0.2,0.1-0.2,0.2-0.2s0.1,0.1,0.1,0.2C264.6,61.9,264.5,61.9,264.4,61.9z M265.6,62.1
		L265.6,62.1l-0.1-0.2h0.1V62.1L265.6,62.1z M237.1,63.2c0-0.1,0-0.2-0.1-0.2c-0.1,0-0.1,0-0.1,0.1C236.9,63.2,237,63.2,237.1,63.2z
		 M261.3,64.2l0.2-0.2c0.2-0.2,0.4-0.3,0.6-0.3c0.2,0,0.4-0.1,0.4-0.2c0.1-0.1,0.2-0.2,0.3-0.2s0.4-0.2,0.5-0.2
		c0.1-0.2,0.2-0.2,0.2-0.2s0.1,0.1,0.1,0.3c0,0.2-0.2,0.3-0.5,0.4c-0.2,0-0.5,0.2-0.5,0.2s-0.1,0.1-0.2,0.1h-0.1
		c-0.2,0-0.4,0.1-0.6,0.2L261.3,64.2L261.3,64.2z M236.9,64c0.1,0,0.2-0.1,0.2-0.2l-0.1-0.2c-0.1,0-0.2,0.1-0.2,0.2L236.9,64
		L236.9,64z M257.9,63.7c0.1,0,0.2-0.1,0.2-0.2c-0.1-0.1-0.1-0.2-0.2-0.2l-0.1,0.2L257.9,63.7C257.8,63.6,257.9,63.7,257.9,63.7z
		 M253.1,64.1L253.1,64.1c-0.1-0.2,0-0.2,0-0.2l0.2,0.1L253.1,64.1z M237,64.6L237,64.6c-0.1-0.1-0.1-0.2-0.2-0.2l-0.1,0.2H237z
		 M256.4,64.2l0.2-0.1c0-0.1-0.1-0.1-0.1-0.1C256.4,64,256.3,64,256.4,64.2l-0.2-0.1C256.2,64.2,256.3,64.2,256.4,64.2L256.4,64.2z
		 M259.5,65.3L259.5,65.3c0-0.2,0.8-0.9,1.3-1.1L261,64h-0.1c-0.2,0-0.4,0-0.7,0.2c-0.4,0.2-0.9,0.2-1,0.2s-0.5,0.2-0.6,0.3
		l-0.1,0.2l0.2,0.2V65c0-0.1,0-0.1,0.1-0.1c0.1,0,0.2,0.1,0.2,0.2C259.2,65.2,259.3,65.3,259.5,65.3L259.5,65.3L259.5,65.3
		L259.5,65.3z M262.8,64.7L262.8,64.7l0.2-0.2c0.4-0.2,0.7-0.3,0.9-0.3l0.2,0.1c0,0-0.2,0.2-0.3,0.2L262.8,64.7z M255.7,64.7
		c0.1,0,0.2-0.1,0.2-0.2c0-0.1,0-0.2-0.1-0.2h-0.1C255.7,64.4,255.7,64.5,255.7,64.7C255.7,64.6,255.7,64.7,255.7,64.7z M236.9,64.9
		C237,64.9,237,64.8,236.9,64.9c0.1-0.2,0-0.2,0-0.2C236.9,64.8,236.8,64.8,236.9,64.9L236.9,64.9z M262.5,64.8L262.5,64.8
		c-0.1-0.1-0.1-0.2,0-0.2C262.6,64.7,262.6,64.7,262.5,64.8L262.5,64.8z M261.4,65.5l-0.2-0.1l0.6-0.4l-0.1,0.2
		C261.6,65.3,261.4,65.5,261.4,65.5L261.4,65.5z M258.3,65.6c0.2,0,0.5-0.1,0.5-0.2s-0.2-0.2-0.4-0.2c-0.2,0-0.4,0-0.5,0.2l-0.1,0.1
		C257.8,65.6,257.9,65.6,258.3,65.6L258.3,65.6z M260.8,65.6L260.8,65.6l-0.1-0.2h0.2L260.8,65.6L260.8,65.6L260.8,65.6z
		 M260.1,66.1c-0.2,0-0.2-0.1-0.2-0.2l0.3-0.2c0.2,0,0.2,0.1,0.2,0.2S260.3,66,260.1,66.1z M259.2,66.4v-0.2l0.2-0.1h0.2
		c0,0.1-0.1,0.1-0.2,0.2L259.2,66.4z M255.6,67.1C255.7,67.1,255.7,67,255.6,67.1c0.1-0.2,0-0.2,0-0.2
		C255.5,66.9,255.5,67,255.6,67.1L255.6,67.1z M259.4,67.2L259.4,67.2l-0.1-0.2l0.1,0.1C259.4,67.1,259.4,67.2,259.4,67.2z
		 M257,68.3c-0.2,0-0.2,0-0.2-0.1l0.4-0.3l1-0.5v0.2l0.1,0.1c0.1,0,0.2-0.1,0.3-0.2c0.2-0.2,0.2-0.2,0.3-0.2l0.1,0.1l-0.2,0.2
		c-0.1,0.1-0.3,0.3-0.6,0.4l-0.6,0.3C257.4,68.2,257.2,68.3,257,68.3L257,68.3L257,68.3z M246.2,67.6H246v-0.1L246.2,67.6
		L246.2,67.6z M254.4,67.7c0.1,0,0.1-0.1,0.1-0.2s-0.1-0.2-0.2-0.2s-0.1,0-0.1,0.1v0.1L254.4,67.7z M253.8,67.6
		C253.9,67.6,253.9,67.6,253.8,67.6l0.1-0.2c0,0-0.1-0.1-0.2-0.1s-0.2,0-0.2,0.1L253.8,67.6L253.8,67.6z M244.5,68.2
		c-0.1,0-0.1-0.1-0.2-0.2c0-0.1,0.1-0.1,0.2-0.1h0.1V68L244.5,68.2z M255.3,68l0.1-0.2l-0.1-0.1C255.3,67.7,255.3,67.8,255.3,68
		C255.3,68,255.3,68,255.3,68z M259.6,67.9h-0.2v-0.1L259.6,67.9L259.6,67.9z M258.2,68.2C258.1,68.2,258.1,68.2,258.2,68.2
		c0-0.2,0.1-0.2,0.1-0.2h0.1l-0.1,0.1C258.2,68.2,258.2,68.2,258.2,68.2L258.2,68.2z M256.8,69.8c-0.1,0-0.2-0.1-0.2-0.2
		s-0.2-0.2-0.3-0.2s-0.2,0.1-0.2,0.1l0.1,0.2h-0.1c-0.1,0-0.2,0-0.3-0.1l-0.1-0.2c0-0.1,0.1-0.1,0.2-0.2s0.3-0.2,0.3-0.3
		c0,0,0-0.1-0.2-0.1c-0.1,0-0.1-0.1-0.1-0.2c0-0.2,0.2-0.2,0.2-0.2s0.2-0.1,0.2-0.2l-0.2-0.3l0.2,0.2l0.1,0.3l-0.1,0.4l0.2,0.2
		C256.8,69.3,256.9,69.6,256.8,69.8C256.9,69.7,256.9,69.8,256.8,69.8L256.8,69.8L256.8,69.8z M257.8,68.8l-0.2-0.1l-0.1-0.2
		l0.1-0.2c0-0.1,0.1-0.1,0.1-0.1l0.2,0.1c0,0.1,0.1,0.1,0.2,0.1h0.2v0.1C258.2,68.7,257.9,68.8,257.8,68.8L257.8,68.8z M258.5,68.6
		C258.5,68.6,258.4,68.6,258.5,68.6c-0.1-0.2,0.1-0.3,0.2-0.4l0.2,0.1l-0.2,0.2C258.6,68.6,258.6,68.6,258.5,68.6z M255.5,69
		L255.5,69c-0.1,0-0.2-0.1-0.2-0.2c0.1-0.2,0.1-0.3,0.2-0.3c0.2,0,0.2,0.1,0.2,0.2S255.7,68.9,255.5,69z M254.6,68.8v-0.2
		c-0.1,0-0.1-0.1-0.1-0.1L254.6,68.8C254.6,68.8,254.6,68.8,254.6,68.8z M253.7,69.4c0.2,0,0.3-0.2,0.5-0.3l0.2-0.2h-0.2l-0.4,0.3
		V69.4C253.6,69.3,253.7,69.4,253.7,69.4z M252.9,70c0.2,0,0.5-0.2,0.5-0.4v-0.1c0-0.1,0-0.2-0.1-0.2l-0.2,0.2
		c-0.1,0.2-0.2,0.3-0.3,0.3c-0.1,0-0.1,0-0.1,0.1L252.9,70L252.9,70z M250.7,69.9l0.8-0.3v-0.1c0,0-0.2,0-0.2,0.1
		C251,69.6,250.7,69.7,250.7,69.9L250.7,69.9z M251.7,70.6l0.5-0.1c0.2-0.1,0.2-0.2,0.2-0.4c0-0.2-0.1-0.3-0.2-0.3l-0.5,0.2
		c-0.3,0.2-0.7,0.3-0.9,0.3c-0.1,0.1-0.2,0.1-0.3,0.1l-0.1,0.2c0,0.1,0.1,0.1,0.2,0.1l0.8-0.4c0.1,0,0.1,0.1,0.1,0.2v0.2
		C251.6,70.6,251.6,70.6,251.7,70.6L251.7,70.6L251.7,70.6z M253,70.5c0.3,0,1-0.2,1-0.3l-0.3-0.2V70h-0.1c-0.1,0-0.2,0-0.2,0.1
		C253.2,70.2,252.9,70.4,253,70.5L253,70.5L253,70.5z M253.5,71.2c0-0.1,0-0.2-0.1-0.2c-0.1,0-0.1,0.1-0.1,0.2
		C253.3,71.1,253.5,71.2,253.5,71.2z M248.3,71.7c0.1,0,0.2-0.1,0.4-0.3l0.2-0.2h-0.1l-0.5,0.2c-0.1,0-0.1,0.1-0.1,0.2
		C248.2,71.6,248.3,71.7,248.3,71.7z M249.7,71.6L249.7,71.6c-0.1-0.1-0.1-0.2-0.2-0.2l-0.1,0.2H249.7z M247.3,72.2
		c0-0.1,0-0.2-0.1-0.2c-0.1,0-0.1,0.1-0.1,0.2S247.3,72.2,247.3,72.2z M246.8,72.6l0.2-0.2l-0.1-0.3l-0.1-0.2
		c-0.1,0-0.1,0.1-0.2,0.2l-0.1,0.2C246.6,72.4,246.8,72.6,246.8,72.6z M253.4,72.1l-0.2-0.1l0.1-0.1h0.2l0.2,0.1
		C253.7,72,253.6,72.1,253.4,72.1z M250.1,73l-0.1-0.2h-0.1v0.1L250.1,73L250.1,73z M265.4,32.8c-1,0-1.4-0.3-2.8-1.1
		c-1-0.6-1.2-0.7-1.2-1c0.6-2.1-0.2-1.4,0.9-3.3h-0.2l-0.1-0.2c0-0.3,0.2-0.6,0.3-1l0.5-1.2v-0.2c0.3,0,0.3-0.8,0.6-1.4
		c0-0.3,0.1-1,0.6-1.4c0.2-0.2,0.2-0.4,0.2-0.5c0.1-0.5,0.3-0.6,0.3-0.8l0.7-1.4c0-0.2,1-1.2,1-1.7l-0.1-0.1c0.3,0,1.2-1.4,1.4-1.4
		c0,0.2-0.2,0.2-0.2,0.6c0,0.6-0.9,1-0.9,1.2c0.2,0.2,0,0.1,0.2,0.2c0.2,0,0.9-1.2,0.9-1.2v-0.1c0.3,0,0-0.3,0.3-0.3l0.7-0.5
		l0.1,0.1l-0.1,0.6c0.3-0.5,0.6-0.6,0.9-0.6c0.2,0,0.2,0.1,0.2,0.2v0.3c0.1,0,0.3-0.2,0.9-0.5l-0.6,1.2c0.1,0,0.2-0.2,0.3-0.4
		c0,0,0.2,0.3,0.3,0.3c0.2-0.3,0.2-0.5,0.3-0.5c0.2,0.2,0.3,0.2,0.3,0.6c0,0.2,0,0.3,0.1,0.3l0.3-0.2c0,0.2-0.3,0.5-0.8,1.5v0.1
		c0.2,0,0.5-0.4,1-1.1v0.2c0,0.2-2,3.6-2,3.9c0,0.2-0.2,0.3-0.3,0.8l0.1,0.3c0.1,0,0.1-0.1,0.1-0.3c1-2,1.3-2.6,1.6-2.6l0.1,0.1
		c-0.9,2-2.2,4.3-2.2,4.6v0.1c-0.2,0.9-0.5,1.3-0.5,1.6c0,0.6-0.6,1.3-0.6,1.5c0,0.1,0.1,0.2,0.2,0.2l-0.4,0.9l0.1,0.2
		c0,0.4-0.3,1.2-0.5,1.2l0.1,0.4l-0.2,0.2c0.2,0.1,0.3,0.2,0.3,0.4c-0.3,0.7-1,0.3-1,0.6v0.1l-0.2,0.2l-0.2-0.1L265.4,32.8
		L265.4,32.8z M266.4,18.6c0.1,0,0.2-0.1,0.2-0.2h-0.2l-0.2,0.1L266.4,18.6L266.4,18.6L266.4,18.6z M264.2,22.7
		c0.5-0.2,0.9-1.8,1.8-3.3c0.2-0.2,0.2-0.5,0.2-0.6l-0.1-0.1c-0.4,0-0.2,0.6-0.5,0.6c-0.2,0-0.2,0.2-0.2,0.2v0.1
		c0,0.2-0.4,0.8-0.7,0.8l-0.1,0.1l0.2,0.6l-0.2,0.2c-0.2,0-0.5,1.1-0.6,1.1c-0.1,0-0.2,0.1-0.2,0.2S264,22.7,264.2,22.7L264.2,22.7
		L264.2,22.7z M264.5,21.9v-0.2l0.2-0.2l0.1,0.1C264.6,21.8,264.6,21.9,264.5,21.9z M270.6,19.7l0.2-0.2l-0.1-0.2
		C270.6,19.5,270.5,19.5,270.6,19.7C270.5,19.7,270.5,19.7,270.6,19.7z M263.4,25c0.2,0,0.5-0.6,0.7-2.1c-0.4,0.2-0.4,1-0.7,1.2
		c-0.1,0-0.1,0.1-0.1,0.2l0.1,0.2c-0.1,0.1-0.2,0.2-0.2,0.4L263.4,25z M265.8,68.4l-0.2-0.1c-0.1,0-0.2,0-0.2-0.2l0.1-0.1l-0.2-0.1
		l-0.2,0.3l-0.2-0.1l-0.1,0.2c-0.2,0-1.1-0.6-1.4-0.6h-0.1c-0.4,0-0.3-0.2-1-0.3c0-0.2-1-0.5-1-0.7s-0.6-0.4-0.6-0.7
		c0.2-0.5,0.3-0.5,0.3-1.1c-0.1-0.9-0.2-1.4-0.2-2c0-0.5,0.1-0.8,0.2-1c0-0.3-0.1-0.4-0.2-0.7c0-0.1,0.2-0.2,0.3-0.2
		c-0.2,0-0.3,0-0.3-0.8l0.1-0.5l-0.1-2.4l0.2-1v-0.3c0-0.2,0.2-0.4,0.2-0.7l-0.2-1c0-0.2,0.1-0.3,0.2-0.3s0.1,0,0.1,0.1l-0.2,0.2
		c0.2-0.1,0.3-0.2,0.3-0.2c0-0.2-0.2-0.1-0.2-0.3c0-0.2,0.5-0.4,0.5-0.6s-0.4-0.3-0.4-0.7c0.1-0.4,0.2-0.6,0.2-1
		c0-0.2,0-0.5,0.2-0.9l-0.2-0.2c0.2-0.2-0.1-0.7,0.3-1.6h-0.1l0.1-0.4v-1c0.1-0.5,0-0.2,0.2-0.7c-0.1-0.1-0.2-0.2-0.2-0.7
		c0-0.5,0.2-0.8,0.2-1.4l0.2-2.4c0-1.7-0.2-2.8-0.4-3.7c0-0.2,0.1-0.2,0.2-0.4l-0.1-0.1c0.3-0.6,0.6-0.4,2.1-0.6
		c0.4,0,0.2,0.2,0.5,0.2l1.8,0.2c0.6,0,1,0.6,1.3,0.6h0.1l0.1,0.2v0.3c0.3,1.2,0.6,1.4,0.6,2.4v0.6c0,1.4,0.2,1.4,0.4,1.4l-0.2,0.3
		l0.1,0.4l-0.2-0.1l-0.1,0.1c0,2.6-0.2,2.5-0.2,3.5L268,47c-0.2,0-0.3,0.3-0.3,1l0.1,0.3c0,0.2-0.1,0.2-0.2,0.2l0.1,0.3l-0.2,1.6
		l-0.2,0.9c0,0.9-0.3,3.2-0.3,4.7l0.1,0.7c0.2-1,0.1-1.8,0.2-1.8h0.2l-0.2,0.5c0,1.1,0.1,0.7,0.1,1.1c-0.2,0.3-0.1,1.1-0.3,1.1
		l-0.1-0.1c0-0.2,0.2-0.3,0.2-0.5l-0.2-0.1c-0.1,0-0.2,0.1-0.2,0.2c0.1,0.2,0.1,0.5,0.1,0.7v0.4c0.1,0,0.2-0.2,0.3-0.4v0.2
		c0,0.8-0.3,0.3-0.3,0.7s0.1,1.2,0.2,1.2l0.1-0.2l-0.1-0.2v-0.5l0.1-0.2c0.2,0.2,0.2,0.2,0.2,0.6c-0.1,0.2-0.1,0.7-0.1,1.2l0.1,0.6
		l-0.1,0.6l-0.2-0.2c-0.1,0-0.1,0.3-0.2,1l0.1,0.5l0.2-0.2l-0.1-0.3c0-0.2,0.1-0.4,0.2-0.4c0.4,0,0.3,4,0.6,4.3
		c0.1,0,0.2,0.2,0.2,0.3c0,0.4-0.6,0.8-1.1,0.8c-0.2,0-0.3,0-0.3,0.2v0.1c0,0.1-0.1,0.1-0.2,0.2L265.8,68.4L265.8,68.4z M268.3,42.2
		l-0.1-0.4l0.1-0.4c0.1,0,0.2,0,0.2,0.1l-0.2,0.2l0.1,0.2C268.5,42.2,268.4,42.2,268.3,42.2L268.3,42.2z M267.9,49.7l-0.2-0.1
		l0.2-0.2C268,49.5,268,49.7,267.9,49.7z M267.5,52.8v-0.5l0.2-0.2l0.1,0.1C267.8,52.3,267.5,52.8,267.5,52.8z M267.5,53.5l-0.2-0.2
		l0.1-0.3c0.2,0,0.3,0.1,0.3,0.2C267.8,53.3,267.7,53.4,267.5,53.5z M267.4,54.8l-0.1-0.2c0-0.1,0.1-0.4,0.2-0.4l0.1,0.1
		C267.6,54.5,267.5,54.7,267.4,54.8z M267.2,61.4v-0.2l-0.1-0.2c0,0-0.1,0.1-0.1,0.3L267.2,61.4L267.2,61.4z M267.1,64L267.1,64
		l0.2-0.4c0-0.2,0-0.2-0.1-0.2h-0.1V64z M277.2,88.8c-0.1,0-0.1-0.1-0.2-0.2h0.1c0-0.1-0.2-0.1-0.4-0.1c-0.2,0-0.3,0-0.3-0.1
		l-0.4-0.2c-0.2-0.1-0.4-0.2-0.4-0.2c0-0.1,0-0.2-0.1-0.2l-0.7,0.4l0.1-0.3c0-0.1,0-0.2-0.1-0.2l-0.1,0.2l-0.1-0.2
		c0-0.2-0.1-0.2-0.2-0.2l-0.2,0.1v-0.1l0.2-0.3l-0.2,0.1c-0.2,0-0.4,0-0.5-0.1c-0.1-0.2-0.2-0.2-0.4-0.2c-0.1,0-0.2-0.1-0.2-0.2
		c-0.1-0.1-0.2-0.2-0.2-0.2h-0.1c-0.2,0-0.3-0.2-0.3-0.4l0.1-0.2c0.2-0.5,0.4-1.2,0.5-2c0-0.7,0.1-1,0.2-1.1l0.1-0.1l-0.1-0.1
		c-0.1-0.1-0.1-0.2-0.1-0.4v-1.4c0-1,0-1.5,0.1-1.8c0-0.1-0.1-0.2-0.2-0.2h-0.1l0.1-0.2c0.1-0.1,0.2-1,0.2-1.5c0-0.2,0-0.4-0.1-0.4
		l0.1-1.5l-0.1-1.1c0.1,0,0.1-1.2,0.1-2.4l-0.1-2.6l-0.1-0.2l0.1-0.1c0.1,0,0.1-0.6,0.1-1.4L273,65c0-1,0-1.5-0.1-1.5
		s-0.1,0.1-0.1,0.2l-0.1,0.2l-0.3-0.1l-1,0.2c-0.1,0-0.1,0-0.1-0.1l-0.2-0.1V64c0,0.1-0.1,0.2-0.2,0.2s-0.2-0.1-0.2-0.1
		c0-0.1-0.2-0.2-0.5-0.2H270c-0.2,0-0.5-0.1-0.9-0.3l-0.6-0.3c-0.1-0.1-0.3-0.2-0.6-0.2c-0.3-0.2-0.4-0.2-0.4-0.4
		c0-0.3-0.7-1.1-1.3-1.4c-0.2-0.2-0.3-0.2-0.3-0.5v-0.2l-0.2-0.3c-0.1-0.2-0.1-0.2-0.1-0.4c0-0.1,0-0.2,0.1-0.3l0.3-0.3
		c0.1-0.2,0.3-0.2,1-0.2c1-0.1,1.2-0.1,1.8-0.3l0.3-0.2l0.3,0.2l0.5-0.2l0.3-0.1c0.3-0.1,0.7-0.2,0.7-0.3s0.1-0.1,0.2-0.1l0.9-0.1
		c0.7-0.2,0.8-0.2,0.8-0.6c0-0.2,0-1.3,0.1-2.4c0.1-2,0.1-3,0.2-5.3l0.1-2.2c0.1-0.7,0.2-1.4,0.2-1.7l0.2-0.3c0.1,0,0.2,0.1,0.2,0.2
		l0.1,0.2c0.1,0,0.2-0.1,0.2-0.2v-0.1c0-0.2-0.2-0.2-0.3-0.2h-0.2c-0.1,0-0.2,0-0.2-0.1l0.1-0.4c0.6-2.2,1.1-3.7,1.4-3.8l0.4-0.6
		c0.2-0.3,0.4-0.6,0.5-0.7c0.2-0.1,0.2-0.2,0.2-0.4c0-0.1,0.1-0.2,0.2-0.2c0.2-0.1,0.5-0.4,0.8-0.8c0.4-0.4,0.8-0.9,1-1
		s0.4-0.3,0.4-0.4l-0.1-0.1h0.2c0.2,0,0.8-0.2,0.8-0.3c0-0.1,0.1-0.1,0.2-0.1c0.1,0,0.1-0.1,0.1-0.1c0-0.1,0.1-0.1,0.2-0.1l0.2,0.1
		c0.1,0,0.1-0.1,0.1-0.2l-0.1-0.2l0.1-0.1l0.1,0.1l0.2,0.1c0.1-0.2,0.7-0.5,1-0.5c0,0,0,0.1-0.2,0.2l-0.3,0.2l0.8-0.2
		c0.2,0,0.2-0.1,0.2-0.1c0-0.1-0.1-0.2-0.2-0.2l-0.1-0.1h0.2c0.2,0,0.3,0.1,0.3,0.2s0.1,0.1,0.2,0.1h0.2c0.2,0,0.3,0,0.5,0.2
		l0.3,0.2c0.2,0,1,0.4,1,0.6c0,0.1,0.2,0.1,0.3,0.1c0.1,0,0.2,0.2,0.3,0.3c0.2,0.3,0.7,0.9,1,1c0.2,0.1,0.2,0.2,0.2,0.3
		c0,0.1,0.1,0.2,0.2,0.4c0.1,0.1,0.2,0.4,0.2,0.8l0.2,0.7c0.1,0.2,0.2,0.8,0.2,1.1v0.2c-0.1,0-0.2,0-0.2-0.1s-0.1-0.1-0.2-0.1
		s-0.2-0.1-0.2-0.2l0.1,0.6l-0.2,0.2l-0.2,0.1l-0.1-0.2l-0.5,0.1c-0.2,0-0.2-0.1-0.2-0.2c0-0.2-0.4-0.4-0.6-0.4l-0.2,0.1l0.1-0.2
		c0-0.1-0.2-0.2-0.6-0.2c-0.2,0-0.2-0.1-0.2-0.2c0-0.2-0.1-0.2-0.2-0.2c0,0-0.1,0-0.2,0.2l-0.6,0.4c-1.2,0.6-2.6,1.8-3.2,3
		c-0.1,0.2-0.2,0.5-0.3,0.5v0.2c0,0.1,0,0.2-0.1,0.2h-0.1l-0.1,0.2c0,0.2,0,0.3-0.1,0.3l-0.2,0.6c0.1,0,0.1,0.2,0.1,0.3V47l0.1,0.2
		l0.1,0.2l-0.2,0.1c-0.1,0.1-0.2,0.2-0.2,0.2c0,0.2-0.2,0.8-0.2,1c-0.1,0.1-0.1,0.2-0.1,0.3c0,0.6-0.1,1.1-0.2,1.1h-0.1
		c-0.2,0-0.3,0.2-0.3,0.2l0.2,0.2v-0.1c0-0.2,0.1-0.2,0.2-0.2l0.1,0.2l0.1,0.2l-0.2,1.6c0,0.1,0,0.2,0.1,0.2c0.2,0,0.2,0.1,0.2,0.2
		c0,0.1,0,0.2-0.1,0.3s-0.2,0.3-0.2,0.6l-0.1,0.4c0,0.1,0.1,0.1,0.2,0.1s0.2,0.1,0.2,0.2l-0.1,0.2h-0.3l-0.2,0.1
		c0.2,0.1,0.3,0.1,0.6,0.1c0,0,0.1,0.2,0.1,0.4c0,0.2-0.1,0.2-0.1,0.2l-0.2-0.1c0,0-0.1,0.3-0.1,0.9c0,0.4,0,0.5,0.1,0.5h0.1
		c0.1-0.1,0.3-0.1,0.6-0.1c0.2-0.1,0.4-0.1,0.4-0.2h0.4l0.2,0.1l0.1-0.1c0-0.1,0.1-0.2,0.2-0.2c0.2,0,0.3,0,0.5-0.1
		c0.1-0.1,0.4-0.2,0.6-0.2s0.5-0.1,0.6-0.2l0.6-0.1c0.2,0,0.5,0,0.6-0.1s0.4-0.2,0.6-0.2c0.3,0,0.8-0.1,1.1-0.2l1.3-0.2
		c0.4,0,0.7,0,0.7-0.1l0.2,0.1l0.1,0.2l0.2-0.1c0.2-0.1,0.6-0.2,1-0.2c0.2,0,0.3-0.1,0.3-0.2l0.1-0.1c0.1,0,0.2,0.1,0.2,0.2
		c0,0.2,0.1,0.2,0.3,0.2h0.2c0.3,0,0.6,0.1,1.2,0.2c1.2,0.4,1.7,0.6,2.5,1.5c0.4,0.3,0.7,0.6,0.9,0.6l0.2,0.1l-0.2,0.2
		c-0.1,0.1-0.2,0.1-0.2,0.2l0.3-0.1l0.2,0.1L294,58c0,0.1,0.1,0.1,0.2,0.1h0.2l-0.2,0.2c0,0.1,0.1,0.1,0.2,0.1c0.2,0,0.2,0,0.2,0.1
		s-0.1,0.1-0.2,0.1h-0.1c-0.2,0-0.2,0.1-0.2,0.2l0.1,0.2c0.1,0.1,0.2,0.2,0.2,0.3l-0.1,0.2h-0.2l-0.2,0.1l-0.1,0.1l0.1,0.1l0.2-0.1
		l0.4-0.1c0,0.2-0.2,0.2-0.3,0.2l-0.5,0.2l-0.3-0.2l-0.2,0.2l-0.4-0.1c-0.3-0.1-0.9-0.2-1.4-0.2c-0.5-0.1-1-0.1-1-0.2h-0.1l0.1,0.3
		h-0.1c0-0.1-0.2-0.2-0.4-0.2s-0.3,0.1-0.3,0.2c0,0.2-0.1,0.2-1.2,0.2c-0.4,0.1-0.8,0.1-0.9,0.2l-1.4,0.2l-0.2-0.2
		c0-0.1-0.2-0.2-0.2-0.2h-0.1l0.2,0.2c0,0.1-0.1,0.1-0.3,0.2c-0.1,0-0.2,0-0.3,0.1H285l-0.1-0.1c0-0.1,0.2-0.2,0.2-0.2l0.2-0.1
		l-0.1-0.1l-0.2-0.1c-0.2,0-0.3,0.1-0.3,0.2v0.2c0,0.1-0.1,0.2-0.2,0.2s-0.3,0-0.4,0.1c-0.1,0-0.2-0.1-0.2-0.2v-0.1
		c0-0.1-0.1-0.2-0.2-0.2c-0.2,0-0.2,0.1-0.2,0.2l0.1,0.2c0,0-0.1,0.1-0.2,0.1s-0.5,0.1-0.6,0.2l-0.3,0.1c-0.1,0-0.1-0.1-0.2-0.2
		l-0.2-0.2v0.2c0,0.2-0.3,0.3-0.8,0.4c-0.2,0-0.3,0.1-0.4,0.2c-0.1,0.2-0.2,0.2-0.2,0.2v-0.2l-0.2,0.2l-0.5,0.1
		c-0.1,0-0.2,0-0.3,0.1l-0.2,0.1l-0.4-0.2v0.1c0,0.1-0.2,0.2-0.2,0.2c-0.2,0.1-0.2,0.2-0.2,0.2v0.1c0,0.2-0.2,0.3-0.4,0.3l-0.1,0.1
		l0.1,0.2c0.1,0,0.2,0.1,0.2,0.2s-0.1,0.2-0.2,0.2h-0.1l-0.1,0.2c0,0.1,0.1,0.2,0.2,0.2h0.1c0.1,0,0.1,0,0.1,0.1l0.1,0.2h-0.2
		c0,0-0.1,0.1-0.1,0.2s0.1,0.2,0.1,0.2l0.1-0.1l0.1,0.2v0.2c0,0.2,0,0.2-0.1,0.2h-0.1c0,0-0.1,0.1-0.1,0.2s0.1,0.2,0.1,0.2
		c0.2,0,0.2,0.4,0.2,0.8v0.2l-0.2-0.1c-0.1-0.2-0.2-0.2-0.2-0.2l0.4,0.7l-0.2,0.1c-0.1,0-0.2,0-0.2,0.2v0.1c0,0.1,0.1,0.2,0.2,0.2
		c0.2,0,0.2,0.1,0.2,0.2s0,0.2-0.2,0.2c-0.1,0-0.2,0.1-0.2,0.4c0,0.2,0.1,0.4,0.2,0.4l0.1-0.1l-0.1-0.5h0.1c0.2,0.2,0.2,0.6,0.2,1
		c0,0.5-0.2,1-0.3,1c-0.1,0-0.2,0-0.2,0.1c0,0,0,0.2-0.1,0.2c0,0.1,0.1,0.2,0.2,0.2c0.1-0.1,0.2-0.2,0.2-0.3v-0.1l0.1,0.2
		c0.2,0.2,0.2,1.1,0.2,2.7c0,0.3-0.1,0.5-0.2,0.5s-0.2,0-0.2,0.1v0.2l0.1-0.1c0.2,0,0.2,0.1,0.2,0.5c0,0.3,0,0.4-0.1,0.4l-0.1-0.1
		c-0.1-0.2-0.1-0.2-0.2-0.2v0.5c0,0.3,0.1,0.6,0.1,0.6c0.1,0,0.1-0.1,0.1-0.2v-0.1c0,0,0.1,0.2,0.1,0.4l0.1,0.9c0,0.2,0,0.4-0.1,0.4
		l-0.2-0.1c-0.1,0-0.1,0-0.1,0.1v0.1l-0.2,0.2h0.1c0.2,0,0.2,0.1,0.2,0.2s-0.1,0.2-0.2,0.2l-0.1,0.1h0.1c0.1,0,0.2-0.1,0.2-0.2
		l0.1-0.2l0.1,0.2c0,0.2-0.1,0.3-0.2,0.4l-0.1,0.2l0.2-0.1l0.1,0.2l-0.1,0.2l-0.1-0.1l-0.2,0.2l-0.1,0.2h0.2v0.2
		c0,0.1,0.1,0.2,0.2,0.2s0.1,0.2,0.2,0.4c0,0.2,0,0.3-0.1,0.3h-0.1c-0.1,0-0.2,0.1-0.2,0.2l0.1,0.2l0.1,0.1v-0.1
		c0-0.2,0.1-0.2,0.2-0.3l0.1,0.1l-0.1,0.2c0,0.2,0,0.5,0.1,0.7l0.1,0.2l-0.1,0.1l-0.1,0.4c0,0.2-0.1,0.5-0.2,0.5s-0.1,0.2-0.1,0.2
		s0,0.1,0.1,0.1c0-0.1,0.1-0.2,0.2-0.2s0.2,0.2,0.2,0.2s-0.1,0.2-0.2,0.2h-0.1h0.1c0.1,0,0.2,0.1,0.2,0.4l-0.2,1.8V85
		c0.1,0,0.1,0.6,0.1,1.4c0,1,0,1.3-0.2,1.4l-0.2,0.2l-0.2-0.1l-0.3,0.2l0.1,0.1c0.1,0,0.1,0.1,0.1,0.2c-0.1,0.2-0.2,0.2-0.3,0.2
		s-0.1,0-0.1-0.1v-0.1c-0.1,0-0.1,0.1-0.2,0.2L277.2,88.8L277.2,88.8z M274.4,44.9v-0.2c0-0.1-0.1-0.1-0.1-0.1L274.4,44.9
		L274.4,44.9z M278.4,49.4L278.4,49.4l-0.1-0.3v0.2C278.3,49.3,278.3,49.4,278.4,49.4L278.4,49.4z M278.5,53.8l-0.1-0.2l0.1-0.2
		c0,0.1,0.1,0.1,0.1,0.2C278.6,53.7,278.6,53.8,278.5,53.8z M283.7,59.2l0.2-0.1l-0.2-0.1c-0.1,0.1-0.2,0.1-0.2,0.2
		C283.5,59.2,283.7,59.2,283.7,59.2z M286.9,60l0.6-0.2l0.3-0.2c0-0.1,0.1-0.1,0.2-0.1h0.3v-0.1c0,0-0.1-0.1-0.2-0.1
		c-0.2,0-0.4,0-0.4,0.1s-0.2,0.2-0.2,0.2l-0.6,0.3L286.9,60L286.9,60L286.9,60z M289.2,59.7l0.2-0.1l-0.3-0.1
		C289,59.6,289.1,59.7,289.2,59.7z M286.9,59.7C287,59.7,287,59.6,286.9,59.7v-0.2l-0.2,0.2C286.7,59.7,286.9,59.7,286.9,59.7z
		 M284.5,60.4v-0.2c0-0.1-0.1-0.2-0.2-0.2l-0.1-0.1v0.1l0.1,0.2L284.5,60.4z M282.8,60.7C282.8,60.7,282.7,60.7,282.8,60.7h-0.2
		H282.8z M272.6,63.2L272.6,63.2c0.1-0.2,0-0.2-0.2-0.2l-0.2,0.1L272.6,63.2z M278.3,65.9L278.3,65.9v-0.2c-0.1,0-0.2,0.1-0.2,0.2
		L278.3,65.9z M278.5,69.5L278.5,69.5v-0.2l-0.2-0.1c-0.1,0-0.1,0-0.1,0.1v0.1C278.4,69.5,278.5,69.5,278.5,69.5z M278.5,72.9
		l0.2-0.1l-0.2-0.2V72.9L278.5,72.9z M278.2,79L278.2,79c0.1-0.2,0.2-0.2,0.2-0.2s0.2-0.1,0.2-0.2c0,0,0-0.1-0.1-0.1l-0.2,0.1
		C278.2,78.7,278.1,78.9,278.2,79C278.1,79,278.1,79,278.2,79z M278.4,80.5c0.2,0,0.2-0.1,0.2-0.4l-0.1-0.2v0.2
		c-0.1,0.2-0.4,0.2-0.4,0.3S278.2,80.5,278.4,80.5C278.4,80.5,278.4,80.5,278.4,80.5z M303.1,68.4l-0.9-0.1l-0.5-0.1l-0.1-0.1
		l-0.2,0.1h-0.4c-0.1-0.1-0.4-0.1-1-0.2c-0.2-0.1-1-0.3-1.6-0.6l-1-0.5c-0.2,0-0.6-0.5-0.6-0.6v-0.1c0-0.1,0-0.1-0.1-0.1
		c-0.1,0-0.2-0.1-0.2-0.2s-0.1-0.2-0.2-0.2h-0.2c-0.2,0-0.2,0-0.2-0.1s0.1-0.2,0.2-0.2h0.1l-0.2-0.2l-0.2-0.1l-0.2,0.2l-0.1-0.2
		c-0.1-0.1-0.1-0.2-0.2-0.4c0-0.1,0-0.1-0.1-0.1l-0.3-0.2c-0.2-0.2-0.8-1.1-0.8-1.3l-0.6-1.1c-0.2-0.2-0.5-0.7-0.5-1
		c0-0.1-0.1-0.3-0.2-0.5c-0.1-0.2-0.3-0.7-0.4-1.1l-0.4-1.1c-0.1-0.1-0.1-0.4-0.1-0.6c0-0.2-0.1-0.5-0.2-0.6
		c-0.2-0.3-0.4-1.9-0.4-2.8l-0.1-1.1c0-0.2,0.1-0.6,0.2-0.9c0.2-0.4,0.2-0.9,0.2-1.2l0.6-1.3c0.2-0.2,0.2-0.6,0.2-0.6
		c0-0.2,0.1-0.2,0.2-0.2c0.1-0.1,0.2-0.2,0.2-0.2c0-0.2,0.1-0.2,0.2-0.2c0.2-0.1,0.3-0.2,0.3-0.4l0.2-0.4c0.1,0,0.1,0,0.1-0.1v-0.1
		c0-0.1,0.2-0.3,0.3-0.5c0.2-0.2,0.4-0.6,0.4-0.6h0.3l-0.2-0.2l0.2-0.1c0.1,0,0.2,0,0.4-0.1l0.2-0.2l-0.2-0.2l0.2-0.2
		c0.1-0.2,0.2-0.3,0.4-0.5c0.1-0.2,0.3-0.2,0.4-0.2c0.2,0,0.2-0.1,0.2-0.3v-0.2c0-0.2,0.1-0.2,0.2-0.3l0.7-0.6
		c0.2-0.2,0.6-0.4,0.7-0.5c0.2,0,0.3-0.1,0.4-0.2c0-0.1,0.1-0.1,0.2-0.1c0.1,0,0.2,0,0.2,0.1v0.1l0.2-0.1l0.2-0.2
		c0-0.1-0.2-0.1-0.3-0.1h-0.1c-0.1,0-0.1,0-0.1-0.1v-0.1c0-0.1,0.1-0.2,0.2-0.2s0.2-0.1,0.2-0.2s0.1-0.1,0.2-0.1
		c0.2,0,0.2-0.1,0.2-0.2l0.1,0.1l0.2,0.1c0.1,0,0.2-0.1,0.3-0.3c0.2-0.3,1-0.8,1.3-0.8h0.1c0.1,0,0.2-0.1,0.3-0.2
		c0.2-0.2,0.6-0.4,0.9-0.4l0.3,0.1c0.2,0,0.4-0.2,0.4-0.3c0-0.1,0.2-0.2,0.8-0.4l0.8-0.2l0.1,0.1l-0.1,0.1c0,0.1,0,0.2,0.1,0.2
		s0.1,0,0.1-0.1s0.2-0.1,0.2-0.1l0.6-0.1c0.2,0,0.6,0.1,0.7,0.2l0.2,0.1l0.2-0.1c0.2,0,0.6,0.1,1.4,0.4c0.2,0.1,0.6,0.2,0.9,0.5
		l0.6,0.3c0.1,0,0.2,0.1,0.2,0.2s0.1,0.2,0.2,0.2c0.2,0,1.8,1.6,2.3,2.2c0.2,0.2,0.4,0.6,0.4,0.6l0.1,0.2c0.1,0,0.2,0.5,0.2,1
		c0,0.5,0.1,1,0.2,1.2l0.2,0.3l-0.3,1c-0.2,0-0.5,0.4-0.5,0.6h-0.2c-0.1,0-1,0.9-1.1,1.1c0,0.1-0.1,0.1-0.2,0.1
		c-0.2,0-0.6,0.3-1,0.8c-0.3,0.3-0.7,0.6-0.8,0.6l-0.1-0.1c-0.1,0-0.2,0.2-0.2,0.3s-0.2,0.3-0.5,0.4c-0.2,0-0.3,0.3-0.3,0.5
		c0,0.1-0.2,0.3-0.6,0.5c-0.3,0.2-0.6,0.4-0.6,0.5s-0.1,0.1-0.2,0.1h-0.1l-0.1,0.1c0,0.1-0.2,0.2-0.3,0.2c-0.5,0.2-0.9,0.3-0.9,0.4
		l0.1,0.1h-0.1c-0.2,0-0.7,0.3-0.7,0.4s0.1,0.1,0.1,0.1l0.2-0.1c0,0.1-0.3,0.2-0.6,0.5l-1.1,0.6c0-0.1,0-0.2-0.1-0.2
		s-0.2,0.1-0.2,0.2c-0.1,0.2-0.2,0.2-0.2,0.2l-0.3,0.1c-0.1,0.1-0.3,0.2-0.6,0.3c-0.3,0.1-0.8,0.3-1.3,0.6l-0.9,0.3h-0.1
		c-0.1,0-0.2,0.1-0.4,0.2c-0.2,0.2-0.5,0.4-0.6,0.4l-0.7,0.1c-0.2,0-0.3-0.1-0.4-0.2h-0.5c-0.3,0-0.6-0.2-0.9-0.8l-0.3-0.4
		c-0.1,0-0.2,0.1-0.2,0.2l0.1,0.6c0.1,0.9,0.1,1.3,0.2,1.4c0,0,0.1,0.2,0.1,0.4c0.1,0.8,0.4,1.9,0.8,2.5l0.3,0.6c0,0.3,0.8,1,1,1
		l0.5,0.1c0.3,0.1,1.1,0.2,1.8,0.2c0.4,0,0.7,0,0.9-0.1c0.1-0.1,0.2-0.1,0.3-0.1h0.2c0.1,0,0.3-0.1,0.4-0.2l0.2-0.1h0.1
		c0,0,0.1,0,0.1-0.1s0.1-0.2,0.2-0.2c0.1,0,0.2,0.1,0.2,0.2c0.1,0,0.1-0.1,0.2-0.2l0.1-0.3c0,0-0.1,0-0.1,0.1s0,0.2-0.1,0.2
		l-0.1-0.1l0.2-0.2l0.1,0.1l0.2,0.1c0.1,0,0.1-0.1,0.1-0.2c0-0.1,0.1-0.2,0.2-0.2v0.2l0.3-0.2c0.2-0.2,0.5-0.3,0.5-0.4h0.2
		c0.2,0,0.2-0.1,0.2-0.2v-0.1c0-0.2,0.3-0.3,1-0.3c0.4-0.1,0.6-0.2,0.6-0.5c0-0.2,0.1-0.3,0.2-0.3s0.2,0.1,0.2,0.2l0.1,0.1l0.1-0.1
		c0-0.2,0-0.2-0.1-0.3l-0.1-0.2h0.2c0.1,0,0.2,0.1,0.2,0.2s0,0.2,0.1,0.2s0.2-0.1,0.4-0.3l0.2-0.3c-0.3,0-0.6,0-0.6-0.2
		c0-0.1,0.2-0.2,0.3-0.2c0.2-0.1,0.4-0.2,0.5-0.4l0.2-0.2h0.2l-0.2,0.2h-0.1l0.1,0.1l-0.1,0.2c-0.1,0.1-0.1,0.2-0.1,0.2l0.4-0.2
		c0.1-0.1,0.2-0.2,0.2-0.2h-0.1l-0.1-0.1c0-0.1,0.2-0.3,0.5-0.5s0.5-0.3,0.5-0.4s0.1-0.1,0.2-0.1l0.2-0.1l0.4-0.4L311,57
		c0.1,0,0.2,0,0.2,0.1l0.1,0.1l0.5-0.3c0.1,0,0.2-0.1,0.2-0.2v-0.1c0-0.1,0-0.1-0.1-0.1l-0.2,0.2c0,0.1-0.1,0.2-0.2,0.2
		s-0.2-0.1-0.2-0.2s0.1-0.2,0.2-0.2s0.3-0.2,0.3-0.2l0.3-0.3l0.2-0.1l0.1,0.1l-0.2,0.2c0,0.1,0.1,0.1,0.2,0.1h0.1
		c0.1-0.1,0.1-0.2,0.1-0.3l0.1-0.2l0.3-0.2c0.2-0.2,0.2-0.2,0.4-0.2c0.1,0,0.2,0.1,0.2,0.2c0.1,0,0.2-0.1,0.2-0.2
		c0.2-0.2,0.3-0.4,0.3-0.5c0.6-0.3,0.8-0.6,0.8-0.7l-0.1-0.2l0.1-0.1c0.2,0,0.2-0.1,0.2-0.2v-0.1h0.3c0.1,0,0.1,0,0.1-0.1
		c0-0.2,0-0.2,0.1-0.2h0.2l-0.1,0.1v0.2l0.4-0.2c0.2-0.1,0.5-0.2,0.8-0.2s0.5,0,0.5-0.1c-0.1,0-0.1,0-0.1-0.1c0-0.1,0.1-0.1,0.2-0.2
		l0.2-0.1l0.1,0.1l0.2,0.1h0.1c0-0.1,0-0.2-0.2-0.2l-0.2-0.3h0.1c0.1,0,0.3-0.2,0.3-0.3c0-0.1,0-0.1-0.1-0.1l-0.3,0.3
		c-0.2,0.2-0.3,0.2-0.4,0.2s-0.2,0.2-0.3,0.3l-0.2,0.2l-0.2-0.2c0-0.2,0.2-0.3,0.3-0.3l0.2-0.1v-0.2c0-0.1,0.1-0.1,0.2-0.1
		c0.1,0,0.2-0.1,0.2-0.2V52h0.4l0.3-0.2l0.3,0.2l-0.2,0.2v0.1l0.5,0.2l0.1-0.1v-0.1h0.1c0.1,0,0.2-0.1,0.2-0.2s0.2-0.1,0.2-0.1
		c0.2,0,0.3-0.2,0.4-0.2c0.1-0.2,0.2-0.2,0.2-0.2s0.1,0,0.1,0.1l-0.2,0.6l0.1,0.1c0.1,0,0.2,0.2,0.2,0.2l-0.1,0.2h-0.1
		c-0.2,0-0.7,0.2-0.8,0.5v0.1h0.1v0.1c0,0.1-0.1,0.2-0.2,0.2l-1,0.3c-0.1,0-0.2-0.1-0.2-0.2l-0.2,0.1l-0.1,0.2h0.3
		c0.2,0,0.2,0.1,0.2,0.1v0.1c-0.1,0.1-0.2,0.3-0.2,0.4v0.1h0.1c0.1,0,0.1-0.1,0.1-0.2v-0.1h0.2c0.3,0,0.6,0,0.6-0.1l-0.1-0.2
		l-0.3,0.2c0-0.2,0.3-0.3,0.6-0.3h0.3l-0.1,0.2c-0.1,0-0.1,0.1-0.1,0.2l0.1,0.2l0.5-0.3v0.1c0,0.1,0,0.2-0.1,0.2l-0.5,0.1
		c-0.2,0-0.6,0.4-0.6,0.7l0.1,0.3l-0.2,0.1c-0.2,0.1-0.2,0.2-0.2,0.2v0.2l-0.1-0.1c-0.2,0-0.2-0.1-0.2-0.2c0-0.1,0-0.1-0.1-0.1
		c-0.1,0-0.2,0-0.3,0.2l-0.2,0.3l-0.1,0.1l0.1,0.1c0.1,0,0.2-0.1,0.2-0.2s0.1-0.2,0.2-0.2s0.2,0.2,0.2,0.3c0,0.2,0,0.2-0.2,0.2
		c-0.1,0-0.1,0-0.1,0.1v0.2c0,0.1-0.1,0.1-0.2,0.1h-0.1l-0.1,0.1h-0.4l0.2,0.3l-0.2,0.1c-0.2,0-0.2,0.2-0.2,0.2
		c0,0.2-0.1,0.2-0.4,0.4c-0.2,0.1-0.5,0.2-0.5,0.2h-0.1c-0.1,0-0.2,0-0.2,0.1s-0.1,0.1-0.2,0.1s-0.2,0.1-0.2,0.1v0.1l0.1,0.1
		l0.2-0.1v0.1c0,0.1-0.1,0.2-0.2,0.2c-0.2,0.1-0.5,0.2-0.5,0.5l0.1,0.3c0.1,0.1,0.1,0.2,0.1,0.2v0.2l0.1-0.1c0.2,0,0.2-0.1,0.2-0.2
		s0.1-0.2,0.2-0.2h0.2c0.1,0,0.2,0,0.2,0.1l-0.1,0.1c-0.1,0-0.2,0.2-0.2,0.3c-0.1,0.2-0.2,0.2-0.3,0.2l-0.4-0.1l-0.2-0.1v0.3h-0.2
		c-0.1,0-0.1,0-0.1,0.1c0,0.2-0.6,0.7-0.9,0.8l-0.4,0.2l-0.3,0.2c-0.1,0-0.1,0.2-0.1,0.3s0,0.3,0.1,0.4l0.1,0.1l-0.1,0.2h-0.2
		c-0.2,0-0.3-0.1-0.3-0.2c0-0.1-0.1-0.1-0.1-0.1c-0.1,0.1-0.1,0.2-0.1,0.3c0,0.2,0.1,0.4,0.2,0.4v-0.1c0-0.2,0.1-0.2,0.3-0.2
		c0.2,0.1,0.4,0.1,0.4,0.2s-0.2,0.2-0.4,0.2c-0.1,0-0.1,0.1-0.1,0.2c0,0.1,0,0.1,0.1,0.1l0.2-0.1l0.4-0.3c0-0.1,0.1-0.2,0.2-0.2
		l0.1,0.1c0,0.2-0.3,0.3-0.6,0.6s-0.6,0.5-0.7,0.5h-0.1c0-0.1-0.1-0.2-0.2-0.2s-0.2,0.1-0.2,0.2s0.1,0.1,0.1,0.1
		c0.1,0,0.1,0,0.1,0.1c0,0.1-0.2,0.2-0.5,0.5c-0.2,0.2-0.5,0.5-0.5,0.6l-0.1,0.2l-0.1-0.1c-0.1,0-0.2,0-0.2,0.1
		c0,0.2-0.5,0.7-0.6,0.7l-0.1,0.1l0.1,0.1c0,0.1,0,0.2-0.1,0.2h-0.1c-0.2,0-1,0.3-1.8,0.7c-0.5,0.2-1,0.5-1.3,0.5s-0.5,0.1-0.5,0.2
		c-0.1,0.1-0.3,0.1-0.5,0.2c-0.1,0-0.2,0.1-0.2,0.2V68l-0.1,0.1c-0.1,0-0.1-0.1-0.1-0.2l-0.1-0.1l-0.2,0.2l-0.2-0.1l-0.2-0.2v0.1
		c0,0.2,0,0.2-0.2,0.2L304,68c-0.2,0-0.3,0-0.4,0.1l-0.1,0.1l-0.1-0.1c-0.1,0-0.1,0-0.1,0.1c0,0.1,0.1,0.2,0.2,0.2h0.1L303.1,68.4
		L303.1,68.4z M303.1,39.5L303.1,39.5v-0.2c0.1,0,0.2,0.1,0.2,0.2L303.1,39.5z M304.7,39.7v-0.2c0-0.1,0-0.1-0.1-0.1
		c-0.1,0-0.1,0-0.1,0.1L304.7,39.7L304.7,39.7z M296.9,44.1L297,44c0-0.1,0-0.2-0.1-0.2L296.9,44.1L296.9,44.1L296.9,44.1z
		 M298.4,51.3l0.7-0.3c0.3-0.2,0.7-0.4,0.8-0.5c0-0.1,0.2-0.1,0.3-0.1c0.1,0,0.3-0.2,0.5-0.3s0.4-0.2,0.6-0.3c0.2,0,0.3-0.1,0.3-0.2
		v-0.2h0.1l0.2-0.1l0.1-0.2l0.3,0.2c0-0.1,0.2-0.2,0.3-0.3s0.2-0.2,0.2-0.3v-0.1c0-0.1,0.1-0.1,0.2-0.1l0.2,0.3V49
		c0.1,0,0.2-0.1,0.2-0.2c0.2-0.1,0.2-0.2,0.2-0.3c-0.1,0-0.1,0.1-0.2,0.2l-0.2,0.1v-0.2c0-0.2,0.1-0.4,0.4-0.6l0.6-0.3
		c0.2-0.1,0.5-0.2,0.7-0.6c0.2-0.2,0.2-0.2,0.3-0.2l0.1,0.1l0.2-0.2c0.2-0.2,0.6-0.4,1-0.6c0.1-0.1,0.2-0.2,0.2-0.2v-0.4l0.2,0.1
		c0.2,0,0.3-0.1,0.5-0.3c0.2-0.2,0.3-0.5,0.3-0.6c0-0.1,0-0.2-0.1-0.2h-0.1c-0.1,0.1-0.4,0.1-0.7,0.1c-0.6,0.1-0.8,0.1-1,0.2
		l-0.6,0.2c-0.2,0.1-0.6,0.3-0.7,0.4l-0.6,0.4c-0.2,0-0.4,0.1-0.5,0.2c0,0.1-0.2,0.2-0.4,0.3c-0.1,0.2-0.3,0.2-0.5,0.2
		c-0.1,0-0.2,0-0.2,0.1s-0.2,0.2-0.4,0.3c-0.2,0.2-0.2,0.2-0.2,0.3v0.1c0,0.2-0.2,0.3-0.5,0.3h-0.1c-0.2,0-0.6,0.3-0.6,0.6
		s-0.6,0.8-0.7,0.8l-0.2,0.2c-0.1,0.1-0.2,0.2-0.5,0.2c-0.2,0.1-0.3,0.2-0.3,0.2s0,0.2,0.2,0.2c0,0.1-0.2,0.3-0.8,1l-0.1,0.4
		L298.4,51.3L298.4,51.3z M303.4,45.6l0.3-0.2h-0.2l-0.1,0.1l-0.1-0.1l0.1-0.3l-0.2,0.2l-0.1-0.1l0.1,0.2
		C303.3,45.5,303.3,45.6,303.4,45.6L303.4,45.6z M295.9,45.7c0.1,0,0.2,0,0.2-0.1l-0.1-0.2L295.9,45.7L295.9,45.7z M304.5,47h-0.2
		H304.5l0.2-0.1C304.7,47,304.6,47,304.5,47L304.5,47z M301.5,47.4c0.1,0,0.2-0.1,0.2-0.2s-0.1-0.1-0.2-0.1l-0.2,0.2
		C301.4,47.4,301.4,47.4,301.5,47.4L301.5,47.4L301.5,47.4z M301.1,48v-0.2c0,0,0-0.1,0.1-0.1s0.1,0.1,0.1,0.1L301.1,48L301.1,48z
		 M312.3,48.1c0.1,0,0.2,0,0.2-0.1s0-0.2-0.1-0.2L312.3,48.1L312.3,48.1L312.3,48.1z M300.3,48.4c0.1,0,0.2,0,0.2-0.1
		c0-0.1,0-0.1-0.1-0.1C300.3,48.2,300.3,48.2,300.3,48.4L300.3,48.4z M311.4,48.6c0.1,0,0.2-0.1,0.2-0.2l-0.2-0.1l-0.1,0.1
		C311.3,48.5,311.3,48.6,311.4,48.6z M301.1,48.7H301c0-0.1,0.1-0.2,0.2-0.2h0.1v0.1L301.1,48.7z M310,49.8l0.2-0.1l0.2-0.2
		l-0.2-0.1C310.1,49.5,310,49.7,310,49.8C310,49.8,310,49.8,310,49.8z M297.7,50.4l0.2-0.1h-0.3L297.7,50.4z M309,50.5
		c0-0.1-0.1-0.1-0.2-0.2h-0.1l-0.1,0.1c0,0.1,0.1,0.1,0.2,0.1L309,50.5L309,50.5z M298.1,51.4c0.1,0,0.2-0.1,0.2-0.2s0-0.1-0.1-0.1
		c0,0-0.1,0-0.1,0.1L298.1,51.4L298.1,51.4L298.1,51.4z M319.3,51.8c-0.1,0-0.2-0.1-0.2-0.2c0-0.1,0-0.2,0.1-0.2
		c0.2,0,0.2-0.1,0.2-0.1c0.1,0,0.2,0.1,0.2,0.2l-0.2,0.1c-0.1,0-0.1,0.1-0.1,0.1V51.8C319.4,51.7,319.3,51.8,319.3,51.8z
		 M318.5,52.2v-0.3l0.4-0.1v0.1c0,0.1-0.1,0.2-0.2,0.2C318.8,52.1,318.5,52.2,318.5,52.2z M319.9,52.1L319.9,52.1l0.1-0.2
		c0.1,0,0.1,0.1,0.1,0.2L319.9,52.1L319.9,52.1z M318.5,52.6L318.5,52.6l-0.2-0.2l-0.2,0.1l-0.1,0.1H318.5L318.5,52.6z M315.9,53.2
		L315.9,53.2V53l0.2-0.2l0.1,0.1l-0.1,0.1C316,53.2,315.9,53.2,315.9,53.2z M318.4,53.4l0.2-0.1L318.4,53.4
		c-0.2-0.1-0.2-0.2-0.2-0.3l0.1-0.2l-0.2,0.1l-0.2,0.2l0.1,0.1L318.4,53.4L318.4,53.4z M317.6,53.4l0.2-0.1l-0.1-0.1l-0.3,0.2
		C317.3,53.4,317.6,53.4,317.6,53.4z M319.4,54L319.4,54l-0.1-0.2h0.1V54z M316.7,53.9c0.2,0,0.2,0,0.2-0.1s-0.2-0.1-0.2-0.1V53.9
		C316.6,53.8,316.6,53.9,316.7,53.9z M304.6,54.4l0.2-0.2l0.1-0.2c-0.1,0-0.2,0.1-0.2,0.2V54.4z M316.6,54.5c0.1,0,0.2,0,0.3-0.1
		l0.1-0.1l-0.1-0.1C316.9,54.2,316.6,54.5,316.6,54.5z M317.1,54.7l0.2-0.2l-0.1-0.1C317.1,54.5,317,54.6,317.1,54.7
		C317,54.6,317,54.7,317.1,54.7z M318.4,55.2l0.5-0.6v0.1c0,0.1-0.1,0.2-0.2,0.2C318.8,55,318.4,55.2,318.4,55.2z M313.5,55
		l-0.2-0.1v-0.1l0.2-0.1h0.2l0.1,0.1C313.8,54.9,313.5,55,313.5,55z M314.1,55c0.1,0,0.2,0,0.2-0.1s0-0.2-0.1-0.2L314.1,55L314.1,55
		z M316.1,55.4c0.1,0,0.2-0.1,0.2-0.2l0.2-0.2c-0.2,0-0.1-0.1-0.3-0.1h-0.4c-0.1,0.1-0.1,0.2-0.1,0.2c0,0,0,0.1,0.1,0.1l0.1-0.1
		h-0.1v-0.1h0.1C316,55.1,316.1,55.3,316.1,55.4L316.1,55.4L316.1,55.4L316.1,55.4z M317.1,55.2c0.1,0,0.2-0.1,0.2-0.2
		c0,0,0-0.1-0.1-0.1L317.1,55.2L317.1,55.2z M318.8,55.4c-0.1,0-0.2,0-0.2-0.1c0.2,0,0.1-0.1,0.2-0.1c0.1,0,0.2-0.1,0.2-0.2
		c0,0,0-0.1,0.1-0.1s0.2,0.1,0.2,0.2s-0.1,0.2-0.2,0.2L318.8,55.4L318.8,55.4z M317.9,55.4c0,0,0.1,0,0.1-0.2l0.1-0.1L318,55
		l-0.2,0.1l-0.1,0.2C317.8,55.4,317.9,55.4,317.9,55.4z M315.1,55.5l0.2-0.1c0-0.1,0-0.2-0.1-0.2c-0.2,0-0.2,0.1-0.2,0.2L315.1,55.5
		L315.1,55.5z M316.8,56.6L316.8,56.6c0.2-0.2,0.2-0.2,0.2-0.3v-0.1c-0.1,0-0.1,0.1-0.2,0.2L316.8,56.6L316.8,56.6z M312.3,56.7
		l0.4-0.2h-0.1C312.6,56.5,312.5,56.6,312.3,56.7L312.3,56.7L312.3,56.7z M315.8,57.2l0.3-0.2h0.2l0.2-0.2c0-0.1-0.1-0.2-0.2-0.2
		c-0.1,0.1-0.2,0.1-0.2,0.2c-0.1,0.2-0.2,0.2-0.2,0.2h-0.1L315.8,57.2L315.8,57.2L315.8,57.2z M314.5,57.2L314.5,57.2
		c0-0.2-0.1-0.2-0.2-0.2s-0.1,0-0.1,0.1S314.3,57.2,314.5,57.2L314.5,57.2z M313.4,57.5l0.2-0.2h-0.1L313.4,57.5
		C313.3,57.5,313.3,57.5,313.4,57.5z M312.3,58.6l0.2-0.2h-0.1c-0.1,0-0.2,0-0.2,0.1S312.2,58.6,312.3,58.6z M315.5,58.9
		c-0.1,0-0.2,0-0.2-0.1l0.1-0.1l0.2,0.1C315.7,58.9,315.6,58.9,315.5,58.9L315.5,58.9z M313.7,59.2L313.7,59.2l-0.1-0.2l-0.1,0.1
		C313.5,59.1,313.6,59.2,313.7,59.2z M315.1,59.3c-0.1,0-0.1-0.1-0.1-0.2V59l0.1,0.1C315.1,59,315.1,59.3,315.1,59.3z M314,60
		c0.1,0,0.1-0.1,0.1-0.2s0-0.2-0.1-0.3h-0.1v0.2C313.9,59.8,313.9,60,314,60z M314.3,59.8c0.1,0,0.1-0.1,0.2-0.2
		c0-0.1,0-0.2-0.1-0.2L314.3,59.8L314.3,59.8z M307.9,59.8L307.9,59.8l-0.1-0.3h0.1C307.9,59.5,307.9,59.7,307.9,59.8L307.9,59.8z
		 M313.5,60.4c0.2,0,0.2-0.2,0.2-0.2c-0.1-0.1-0.3-0.2-0.5-0.2c-0.1,0-0.1,0.1-0.1,0.1c0,0.1,0.1,0.2,0.2,0.2
		C313.4,60.3,313.5,60.4,313.5,60.4z M312.3,61.2l0.2-0.1c0.1-0.1,0.3-0.2,0.6-0.3l0.2-0.2l-0.2-0.1c-0.1,0-0.2,0-0.2,0.1
		s-0.2,0.2-0.2,0.2c-0.2,0-0.2,0.1-0.2,0.2L312.3,61.2L312.3,61.2z M311.6,61.9c0,0,0.1-0.1,0.1-0.2c0-0.1,0-0.2-0.1-0.2
		s-0.1,0.2-0.1,0.2S311.5,61.9,311.6,61.9z M312.7,62l-0.2-0.1c0-0.1,0.1-0.1,0.2-0.1C312.8,61.8,312.8,61.9,312.7,62L312.7,62z
		 M313.7,62.4c-0.1,0-0.2,0-0.2-0.1l-0.1-0.5c0.1,0,0.1,0.1,0.2,0.2L313.7,62.4C313.8,62.4,313.8,62.4,313.7,62.4L313.7,62.4z
		 M311.3,63.1l0.2-0.2h-0.2l-0.2,0.1C311.1,63.1,311.2,63.1,311.3,63.1z M311.5,63.4l0.2-0.1l0.2-0.3c0-0.1,0-0.1-0.1-0.1
		c0,0.1-0.1,0.1-0.1,0.1L311.5,63.4L311.5,63.4L311.5,63.4z M309.9,65c0.1,0,0.3-0.2,0.6-0.4c0.2-0.2,0.3-0.3,0.3-0.4v-0.1
		c-0.1,0-0.2,0.2-0.4,0.3s-0.4,0.3-0.5,0.3s-0.2,0-0.2,0.1S309.9,65,309.9,65L309.9,65z M305.1,68.3c-0.2,0-0.2-0.1-0.2-0.2
		s0.1-0.1,0.2-0.1h0.1c0.1,0,0.2,0.1,0.2,0.2L305.1,68.3z M303.9,68.4c-0.1,0-0.2,0-0.2-0.1s0.1-0.2,0.2-0.2h0.1
		c0.1,0,0.2,0.1,0.2,0.2C304.2,68.3,304.1,68.4,303.9,68.4z"/>
</g>
</svg>
